<?xml version="1.0" encoding="utf-8"?>
<!-- Generator: Adobe Illustrator 24.1.1, SVG Export Plug-In . SVG Version: 6.00 Build 0)  -->
<svg version="1.1" id="Capa_4" xmlns="http://www.w3.org/2000/svg" xmlns:xlink="http://www.w3.org/1999/xlink" x="0px" y="0px"
	 viewBox="0 0 422.81 428.94" style="enable-background:new 0 0 422.81 428.94;" xml:space="preserve">
<style type="text/css">
	.st0{fill:#FFFFFF;}
	.st1{fill:#AE890B;}
</style>
<g>
	<rect x="91.45" y="377.38" class="st0" width="286.57" height="24.14"/>
	<rect x="152.1" y="342.3" class="st0" width="57.23" height="18.42"/>
	<rect x="222.87" y="342.3" class="st0" width="57.23" height="18.42"/>
	<rect x="293.65" y="342.3" class="st0" width="57.23" height="18.42"/>
	<path class="st1" d="M378.01,23.93H91.44c-2.86,0-5.17,2.32-5.17,5.17v35.98c0,2.86,2.32,5.17,5.17,5.17
		c2.86,0,5.17-2.32,5.17-5.17v-30.8h276.23v362.07H96.61v-30.8c0-2.86-2.31-5.17-5.17-5.17c-2.86,0-5.17,2.32-5.17,5.17v35.98
		c0,2.86,2.32,5.17,5.17,5.17h286.57c2.86,0,5.17-2.32,5.17-5.17V29.1C383.18,26.25,380.87,23.93,378.01,23.93L378.01,23.93z
		 M378.01,23.93"/>
	<path class="st1" d="M62.22,113.78h59.65c9.52,0,17.27-7.75,17.27-17.27c0-9.52-7.75-17.26-17.27-17.26H62.22
		c-9.52,0-17.26,7.74-17.26,17.26C44.96,106.03,52.7,113.78,62.22,113.78L62.22,113.78z M62.22,89.59h59.65
		c3.82,0,6.92,3.1,6.92,6.92c0,3.82-3.1,6.92-6.92,6.92H62.22c-3.81,0-6.92-3.1-6.92-6.92C55.3,92.7,58.41,89.59,62.22,89.59
		L62.22,89.59z M62.22,89.59"/>
	<path class="st1" d="M62.22,192.98h59.65c9.52,0,17.27-7.74,17.27-17.26c0-9.52-7.75-17.26-17.27-17.26H62.22
		c-9.52,0-17.26,7.74-17.26,17.26C44.96,185.23,52.7,192.98,62.22,192.98L62.22,192.98z M62.22,168.8h59.65
		c3.82,0,6.92,3.1,6.92,6.92c0,3.82-3.1,6.92-6.92,6.92H62.22c-3.81,0-6.92-3.1-6.92-6.92C55.3,171.9,58.41,168.8,62.22,168.8
		L62.22,168.8z M62.22,168.8"/>
	<path class="st1" d="M62.22,272.17h59.65c9.52,0,17.27-7.74,17.27-17.26c0-9.51-7.75-17.26-17.27-17.26H62.22
		c-9.52,0-17.26,7.75-17.26,17.26C44.96,264.43,52.7,272.17,62.22,272.17L62.22,272.17z M62.22,248h59.65c3.82,0,6.92,3.1,6.92,6.92
		c0,3.82-3.1,6.92-6.92,6.92H62.22c-3.81,0-6.92-3.1-6.92-6.92C55.3,251.1,58.41,248,62.22,248L62.22,248z M62.22,248"/>
	<path class="st1" d="M139.14,334.11c0-9.52-7.75-17.27-17.27-17.27H62.22c-9.52,0-17.26,7.75-17.26,17.27s7.74,17.26,17.26,17.26
		h59.65C131.39,351.38,139.14,343.63,139.14,334.11L139.14,334.11z M55.3,334.11c0-3.82,3.1-6.92,6.92-6.92h59.66
		c3.82,0,6.92,3.1,6.92,6.92c0,3.82-3.1,6.92-6.92,6.92H62.22C58.41,341.03,55.3,337.93,55.3,334.11L55.3,334.11z M55.3,334.11"/>
	<path class="st1" d="M86.27,286.35v16.33c0,2.86,2.32,5.17,5.17,5.17c2.86,0,5.17-2.32,5.17-5.17v-16.33
		c0-2.86-2.31-5.17-5.17-5.17C88.58,281.18,86.27,283.49,86.27,286.35L86.27,286.35z M86.27,286.35"/>
	<path class="st1" d="M86.27,207.16v16.32c0,2.86,2.32,5.17,5.17,5.17c2.86,0,5.17-2.32,5.17-5.17v-16.32
		c0-2.86-2.31-5.17-5.17-5.17C88.58,201.98,86.27,204.3,86.27,207.16L86.27,207.16z M86.27,207.16"/>
	<path class="st1" d="M86.27,127.95v16.33c0,2.86,2.32,5.17,5.17,5.17c2.86,0,5.17-2.32,5.17-5.17v-16.33
		c0-2.86-2.31-5.17-5.17-5.17C88.58,122.78,86.27,125.1,86.27,127.95L86.27,127.95z M86.27,127.95"/>
	<path class="st1" d="M281.28,188.52h-79.4c-2.86,0-5.17,2.32-5.17,5.17c0,2.86,2.31,5.17,5.17,5.17h79.4
		c2.86,0,5.17-2.32,5.17-5.17C286.45,190.84,284.13,188.52,281.28,188.52L281.28,188.52z M281.28,188.52"/>
	<path class="st1" d="M226.63,91.86h-31.76c-0.41,0-0.81,0.06-1.19,0.15c-0.11,0.03-0.21,0.07-0.32,0.1
		c-0.27,0.08-0.54,0.19-0.8,0.31c-0.11,0.06-0.22,0.11-0.32,0.18c-0.26,0.16-0.5,0.32-0.72,0.52c-0.07,0.06-0.16,0.12-0.23,0.19
		c-0.29,0.27-0.54,0.57-0.75,0.9c-0.01,0.02-0.03,0.03-0.04,0.04l-22.37,35.11c-1.54,2.41-0.82,5.6,1.58,7.14
		c2.41,1.53,5.6,0.82,7.14-1.58l18.01-28.26l18.01,28.26c0.98,1.55,2.66,2.39,4.36,2.39c0.95,0,1.91-0.26,2.77-0.81
		c2.41-1.54,3.12-4.73,1.58-7.14l-17.31-27.16h22.33c2.86,0,5.17-2.32,5.17-5.17C231.8,94.18,229.49,91.86,226.63,91.86
		L226.63,91.86z M226.63,91.86"/>
	<path class="st1" d="M292.64,94.26c-0.01-0.02-0.03-0.03-0.04-0.04c-0.21-0.33-0.46-0.63-0.75-0.9c-0.07-0.07-0.15-0.12-0.23-0.19
		c-0.22-0.19-0.46-0.37-0.72-0.52c-0.1-0.06-0.21-0.12-0.32-0.18c-0.25-0.12-0.52-0.23-0.8-0.31c-0.11-0.03-0.21-0.08-0.32-0.1
		c-0.39-0.09-0.78-0.15-1.19-0.15h-31.76c-2.86,0-5.17,2.32-5.17,5.17c0,2.86,2.32,5.17,5.17,5.17h22.33l-17.3,27.16
		c-1.54,2.41-0.82,5.6,1.58,7.14c2.41,1.53,5.6,0.82,7.14-1.58l18.01-28.26l18.01,28.26c0.99,1.55,2.66,2.39,4.37,2.39
		c0.95,0,1.91-0.26,2.78-0.81c2.41-1.54,3.12-4.73,1.58-7.14L292.64,94.26z M292.64,94.26"/>
	<path class="st1" d="M242.35,102.43c-2.86,0-5.17,2.32-5.17,5.17v64.42h-20.47c-2.86,0-5.17,2.32-5.17,5.17
		c0,2.86,2.32,5.17,5.17,5.17h49.73c2.86,0,5.17-2.31,5.17-5.17c0-2.86-2.32-5.17-5.17-5.17h-18.92v-64.42
		C247.52,104.75,245.21,102.43,242.35,102.43L242.35,102.43z M242.35,102.43"/>
	<path class="st1" d="M146.92,360.72c0,2.86,2.32,5.17,5.17,5.17h57.23c2.86,0,5.17-2.32,5.17-5.17v-26.54
		c0-9.78-6.34-18.12-15.12-21.12c1.74-3.12,2.7-6.69,2.7-10.42c0-11.78-9.58-21.36-21.36-21.36c-11.77,0-21.36,9.58-21.36,21.36
		c0,3.73,0.95,7.3,2.69,10.42c-8.78,3-15.12,11.33-15.12,21.12V360.72z M157.27,334.18c0-6.59,5.37-11.96,11.96-11.96h4.08
		c2.39,0,4.47-1.64,5.03-3.95c0.56-2.32-0.54-4.73-2.66-5.82c-3.69-1.9-5.98-5.65-5.98-9.8c0-6.07,4.94-11.01,11.01-11.01
		c6.08,0,11.02,4.94,11.02,11.01c0,4.15-2.29,7.9-5.98,9.8c-2.12,1.09-3.22,3.5-2.66,5.82c0.56,2.32,2.64,3.95,5.03,3.95h4.08
		c6.59,0,11.96,5.36,11.96,11.96v21.37h-46.88V334.18z M157.27,334.18"/>
	<path class="st1" d="M217.7,334.18v26.54c0,2.86,2.32,5.17,5.17,5.17h57.23c2.86,0,5.17-2.32,5.17-5.17v-26.54
		c0-9.78-6.34-18.12-15.12-21.12c1.74-3.12,2.69-6.69,2.69-10.42c0-11.78-9.58-21.36-21.36-21.36c-11.78,0-21.36,9.58-21.36,21.36
		c0,3.73,0.96,7.3,2.7,10.42C224.04,316.06,217.7,324.39,217.7,334.18L217.7,334.18z M228.05,334.18c0-6.59,5.37-11.96,11.96-11.96
		h4.08c2.39,0,4.46-1.64,5.03-3.95c0.56-2.32-0.54-4.73-2.66-5.82c-3.69-1.9-5.98-5.65-5.98-9.8c0-6.07,4.95-11.01,11.02-11.01
		c6.07,0,11.01,4.94,11.01,11.01c0,4.15-2.29,7.9-5.98,9.8c-2.12,1.09-3.22,3.5-2.66,5.82c0.57,2.32,2.64,3.95,5.03,3.95h4.08
		c6.59,0,11.96,5.36,11.96,11.96v21.37h-46.88V334.18z M228.05,334.18"/>
	<path class="st1" d="M288.48,334.18v26.54c0,2.86,2.31,5.17,5.17,5.17h57.22c2.86,0,5.17-2.32,5.17-5.17v-26.54
		c0-9.78-6.34-18.12-15.12-21.12c1.74-3.12,2.69-6.69,2.69-10.42c0-11.78-9.58-21.36-21.36-21.36c-11.78,0-21.36,9.58-21.36,21.36
		c0,3.73,0.96,7.3,2.7,10.42C294.82,316.06,288.48,324.39,288.48,334.18L288.48,334.18z M298.83,334.18
		c0-6.59,5.36-11.96,11.96-11.96h4.08c2.39,0,4.47-1.64,5.03-3.95c0.57-2.32-0.54-4.73-2.66-5.82c-3.69-1.9-5.99-5.65-5.99-9.8
		c0-6.07,4.95-11.01,11.02-11.01c6.07,0,11.01,4.94,11.01,11.01c0,4.15-2.29,7.9-5.98,9.8c-2.12,1.09-3.22,3.5-2.66,5.82
		c0.56,2.32,2.63,3.95,5.03,3.95h4.08c6.59,0,11.96,5.36,11.96,11.96v21.37h-46.88V334.18z M298.83,334.18"/>
	<path class="st1" d="M146.92,271.78v26.54c0,2.86,2.32,5.17,5.17,5.17c2.86,0,5.17-2.31,5.17-5.17v-26.54
		c0-6.59,5.37-11.96,11.96-11.96h4.08c2.39,0,4.47-1.63,5.03-3.95c0.56-2.32-0.54-4.73-2.66-5.82c-3.69-1.9-5.98-5.65-5.98-9.8
		c0-6.07,4.94-11.01,11.01-11.01c6.08,0,11.02,4.94,11.02,11.01c0,4.15-2.29,7.9-5.98,9.8c-2.12,1.09-3.22,3.5-2.66,5.82
		c0.56,2.32,2.64,3.95,5.03,3.95h4.08c6.59,0,11.96,5.37,11.96,11.96v26.54c0,2.86,2.31,5.17,5.17,5.17c2.86,0,5.17-2.31,5.17-5.17
		v-26.54c0-9.78-6.34-18.12-15.12-21.12c1.74-3.12,2.7-6.68,2.7-10.41c0-11.78-9.58-21.36-21.36-21.36
		c-11.77,0-21.36,9.58-21.36,21.36c0,3.73,0.95,7.29,2.69,10.41C153.26,253.66,146.92,262,146.92,271.78L146.92,271.78z
		 M146.92,271.78"/>
	<path class="st1" d="M285.27,271.78c0-9.78-6.34-18.12-15.12-21.12c1.74-3.12,2.69-6.68,2.69-10.41c0-11.78-9.58-21.36-21.36-21.36
		c-11.78,0-21.36,9.58-21.36,21.36c0,3.73,0.96,7.29,2.7,10.41c-8.79,3-15.12,11.34-15.12,21.12v26.54c0,2.86,2.32,5.17,5.17,5.17
		c2.86,0,5.17-2.31,5.17-5.17v-26.54c0-6.59,5.37-11.96,11.96-11.96h4.08c2.39,0,4.46-1.63,5.03-3.95c0.56-2.32-0.54-4.73-2.66-5.82
		c-3.69-1.9-5.98-5.65-5.98-9.8c0-6.07,4.95-11.01,11.02-11.01c6.07,0,11.01,4.94,11.01,11.01c0,4.15-2.29,7.9-5.98,9.8
		c-2.12,1.09-3.22,3.5-2.66,5.82c0.57,2.32,2.64,3.95,5.03,3.95h4.08c6.59,0,11.96,5.37,11.96,11.96v26.54
		c0,2.86,2.32,5.17,5.17,5.17s5.17-2.31,5.17-5.17V271.78z M285.27,271.78"/>
	<path class="st1" d="M322.27,218.89c-11.78,0-21.36,9.58-21.36,21.36c0,3.73,0.96,7.3,2.7,10.41c-8.79,3-15.12,11.34-15.12,21.12
		v26.54c0,2.86,2.31,5.17,5.17,5.17c2.86,0,5.17-2.31,5.17-5.17v-26.54c0-6.59,5.36-11.96,11.96-11.96h4.08
		c2.39,0,4.47-1.63,5.03-3.95c0.57-2.32-0.54-4.73-2.66-5.82c-3.69-1.9-5.99-5.65-5.99-9.8c0-6.07,4.95-11.01,11.02-11.01
		c6.07,0,11.01,4.94,11.01,11.01c0,4.15-2.29,7.9-5.98,9.8c-2.12,1.09-3.22,3.5-2.66,5.82c0.56,2.32,2.63,3.95,5.03,3.95h4.08
		c6.59,0,11.96,5.37,11.96,11.96v26.54c0,2.86,2.32,5.17,5.17,5.17c2.86,0,5.17-2.31,5.17-5.17v-26.54
		c0-9.78-6.34-18.12-15.12-21.12c1.74-3.12,2.69-6.68,2.69-10.41C343.63,228.48,334.04,218.89,322.27,218.89L322.27,218.89z
		 M322.27,218.89"/>
	<path class="st1" d="M315.8,131.26c0,15.21-12.33,27.52-27.52,27.52c-15.21,0-27.52-12.32-27.52-27.52H315.8z M315.8,131.26"/>
	<path class="st1" d="M222.39,131.26c0,15.21-12.32,27.52-27.52,27.52c-15.2,0-27.52-12.32-27.52-27.52H222.39z M222.39,131.26"/>
	<path class="st1" d="M256.52,97.04c0,8.25-6.69,14.95-14.94,14.95c-8.25,0-14.95-6.69-14.95-14.95c0-8.25,6.69-14.94,14.95-14.94
		C249.83,82.1,256.52,88.78,256.52,97.04L256.52,97.04z M256.52,97.04"/>
</g>
</svg>
