<?xml version="1.0" encoding="utf-8"?>
<!-- Generator: Adobe Illustrator 24.1.1, SVG Export Plug-In . SVG Version: 6.00 Build 0)  -->
<svg version="1.1" id="Capa_3" xmlns="http://www.w3.org/2000/svg" xmlns:xlink="http://www.w3.org/1999/xlink" x="0px" y="0px"
	 viewBox="0 0 422.81 428.94" style="enable-background:new 0 0 422.81 428.94;" xml:space="preserve">
<style type="text/css">
	.st0{clip-path:url(#SVGID_2_);fill:#AE890B;}
	.st1{fill:#AE890B;}
</style>
<g>
	<g>
		<defs>
			<rect id="SVGID_1_" x="19.4" y="20.51" width="384" height="384"/>
		</defs>
		<clipPath id="SVGID_2_">
			<use xlink:href="#SVGID_1_"  style="overflow:visible;"/>
		</clipPath>
		<path class="st0" d="M384.19,46.1h-42.84c-24.19-17.07-56.5-17.07-80.69,0h-17.89c-3.04-14.9-16.15-25.6-31.35-25.6
			c-15.2,0-28.31,10.7-31.35,25.6H38.62c-10.6,0.01-19.19,8.6-19.2,19.2v230.38c0.01,10.6,8.6,19.19,19.2,19.2h114.47l-35.11,60.81
			c-5.27,9.18-2.11,20.89,7.05,26.18c9.17,5.29,20.88,2.16,26.19-7l40.98-71.03v61.43c0,10.6,8.6,19.2,19.2,19.2
			c10.6,0,19.2-8.59,19.2-19.2v-61.43l40.97,71.02c3.42,5.96,9.76,9.64,16.63,9.65c6.87,0.01,13.22-3.66,16.65-9.61
			c3.43-5.95,3.42-13.29-0.04-19.23l-35.1-60.79h114.47c10.6-0.01,19.19-8.6,19.2-19.2V65.3C403.37,54.7,394.79,46.11,384.19,46.1
			L384.19,46.1z M300.99,46.1c31.8,0.04,57.56,25.8,57.6,57.59c0,31.81-25.79,57.59-57.6,57.59c-31.81,0-57.59-25.79-57.59-57.59
			C243.4,71.89,269.19,46.1,300.99,46.1L300.99,46.1z M211.4,33.31c8.11,0.02,15.32,5.15,18.02,12.8h-36.04
			C196.08,38.45,203.3,33.33,211.4,33.31L211.4,33.31z M140.13,388.48c-1.77,3.05-5.68,4.09-8.73,2.32
			c-3.05-1.77-4.09-5.68-2.32-8.73l38.79-67.2h14.73L140.13,388.48z M217.8,385.27c0,3.53-2.86,6.4-6.4,6.4
			c-3.54,0-6.4-2.87-6.4-6.4v-70.39h12.8L217.8,385.27L217.8,385.27z M293.71,382.05c1.15,1.97,1.16,4.41,0.03,6.39
			c-1.14,1.98-3.25,3.21-5.53,3.21c-2.29,0.01-4.4-1.21-5.54-3.19l-42.46-73.59h14.73L293.71,382.05z M390.59,295.68
			c0,3.54-2.87,6.4-6.4,6.4H38.62c-3.53,0-6.4-2.86-6.4-6.4V65.3c0-3.54,2.86-6.4,6.4-6.4h208.12
			c-12.08,14.59-17.76,33.43-15.74,52.27c2.02,18.83,11.56,36.04,26.46,47.74l-31.57,48.61c-8.03-2.87-16.98-1.37-23.64,3.98
			l-18.56-14.47c4.65-10.72,1.44-23.24-7.79-30.41s-22.15-7.17-31.39,0c-9.24,7.17-12.44,19.68-7.79,30.41l-18.56,14.47
			c-4.44-3.48-9.91-5.39-15.55-5.41c-11.34-0.03-21.36,7.4-24.63,18.27c-3.27,10.86,0.98,22.58,10.46,28.82
			c9.48,6.24,21.92,5.51,30.61-1.79c8.69-7.3,11.55-19.43,7.04-29.84l18.56-14.47c9.12,7.21,21.99,7.21,31.1,0l18.56,14.47
			c-5.14,11.71-0.85,25.42,10.05,32.11c10.89,6.7,25.06,4.33,33.19-5.54c8.13-9.88,7.73-24.23-0.93-33.64l31.54-48.56
			c29.66,15.68,66.26,8.23,87.44-17.79c21.18-26.02,21.03-63.38-0.35-89.23h28.93c3.53,0,6.4,2.86,6.4,6.4V295.68z M230.6,231.69
			c0,7.07-5.73,12.8-12.8,12.8c-7.07,0-12.8-5.73-12.8-12.8c0.01-7.07,5.73-12.79,12.8-12.8
			C224.87,218.88,230.6,224.61,230.6,231.69L230.6,231.69z M173.01,186.89c0,7.07-5.73,12.8-12.8,12.8
			c-7.07-0.01-12.79-5.74-12.8-12.8c0-7.07,5.73-12.8,12.8-12.8C167.28,174.09,173.01,179.82,173.01,186.89L173.01,186.89z
			 M115.41,231.69c0,7.07-5.73,12.8-12.8,12.8c-7.07,0-12.8-5.73-12.8-12.8c0-7.07,5.73-12.8,12.8-12.8
			C109.68,218.9,115.4,224.62,115.41,231.69L115.41,231.69z M115.41,231.69"/>
	</g>
	<path class="st1" d="M364.99,270.08H64.22V84.5c0-3.53-2.86-6.4-6.4-6.4c-3.54,0-6.4,2.87-6.4,6.4v191.98
		c0,1.7,0.67,3.32,1.88,4.52c1.2,1.2,2.83,1.88,4.52,1.88h307.17c3.53,0,6.4-2.87,6.4-6.4
		C371.39,272.95,368.53,270.08,364.99,270.08L364.99,270.08z M364.99,270.08"/>
	<path class="st1" d="M288.2,119.06c0-3.54-2.86-6.4-6.4-6.4c-3.54,0-6.4,2.87-6.4,6.4c0.69,10.63,8.67,19.35,19.19,20.98v2.05
		c0,3.53,2.87,6.4,6.4,6.4c3.53,0,6.4-2.87,6.4-6.4v-2.05c10.52-1.63,18.5-10.36,19.2-20.98c-0.69-10.63-8.67-19.36-19.2-20.99
		V80.67c3.47,1.05,5.99,4.07,6.4,7.67c0,3.54,2.86,6.4,6.4,6.4c3.53,0,6.4-2.86,6.4-6.4c-0.69-10.63-8.67-19.35-19.2-20.98V65.3
		c0-3.54-2.86-6.4-6.4-6.4c-3.54,0-6.4,2.87-6.4,6.4v2.05c-10.52,1.63-18.5,10.36-19.2,20.98c0.69,10.63,8.67,19.36,19.2,20.98
		v17.41C291.12,125.68,288.61,122.66,288.2,119.06L288.2,119.06z M307.4,111.38c3.47,1.05,5.99,4.07,6.4,7.68
		c-0.41,3.61-2.93,6.62-6.4,7.67V111.38z M288.2,88.34c0.41-3.61,2.93-6.62,6.4-7.67v15.35C291.12,94.96,288.61,91.94,288.2,88.34
		L288.2,88.34z M288.2,88.34"/>
</g>
</svg>
