<?xml version="1.0" encoding="utf-8"?>
<!-- Generator: Adobe Illustrator 16.0.0, SVG Export Plug-In . SVG Version: 6.00 Build 0)  -->
<!DOCTYPE svg PUBLIC "-//W3C//DTD SVG 1.1//EN" "http://www.w3.org/Graphics/SVG/1.1/DTD/svg11.dtd">
<svg version="1.1" id="Layer_1" xmlns="http://www.w3.org/2000/svg" xmlns:xlink="http://www.w3.org/1999/xlink" x="0px" y="0px"
	 width="451px" height="367px" viewBox="254.5 96.5 451 367" enable-background="new 254.5 96.5 451 367" xml:space="preserve">
<path fill="#FFFFFF" d="M480.328,298.594l-148.75,148.75c-10.281,10.281-26.906,10.281-37.078,0l-24.719-24.719
	c-10.281-10.281-10.281-26.906,0-37.078L375.219,280.11L269.781,174.672c-10.281-10.281-10.281-26.906,0-37.078l24.609-24.938
	c10.281-10.281,26.906-10.281,37.078,0l148.75,148.75C490.609,271.688,490.609,288.313,480.328,298.594z M690.328,261.406
	l-148.75-148.75c-10.281-10.281-26.906-10.281-37.078,0l-24.719,24.719c-10.281,10.281-10.281,26.906,0,37.078l105.438,105.438
	L479.781,385.328c-10.281,10.28-10.281,26.906,0,37.077l24.719,24.72c10.281,10.28,26.906,10.28,37.078,0l148.75-148.75
	C700.609,288.313,700.609,271.688,690.328,261.406L690.328,261.406z"/>
</svg>
