<?xml version="1.0" encoding="utf-8"?>
<!-- Generator: Adobe Illustrator 24.1.1, SVG Export Plug-In . SVG Version: 6.00 Build 0)  -->
<svg version="1.1" id="Capa_1" xmlns="http://www.w3.org/2000/svg" xmlns:xlink="http://www.w3.org/1999/xlink" x="0px" y="0px"
	 viewBox="0 0 422.81 428.94" style="enable-background:new 0 0 422.81 428.94;" xml:space="preserve">
<style type="text/css">
	.st0{clip-path:url(#SVGID_2_);fill:#AE890B;}
	.st1{fill:#AE890B;}
</style>
<g>
	<g>
		<defs>
			<rect id="SVGID_1_" x="60.91" y="23.83" width="316" height="384"/>
		</defs>
		<clipPath id="SVGID_2_">
			<use xlink:href="#SVGID_1_"  style="overflow:visible;"/>
		</clipPath>
		<path class="st0" d="M327.76,83.14l-96.92-56.11c-7.36-4.26-16.5-4.26-23.85,0l-96.92,56.11c-7.32,4.24-11.88,12.13-11.88,20.6
			v112.32c0,8.46,4.55,16.35,11.88,20.59l96.92,56.12c3.68,2.13,7.8,3.19,11.93,3.19c4.12,0,8.25-1.06,11.92-3.19l96.93-56.12
			c7.32-4.24,11.88-12.13,11.88-20.59V103.74C339.64,95.27,335.09,87.38,327.76,83.14L327.76,83.14z M213.29,283.38
			c-0.22-0.11-0.45-0.23-0.66-0.36l-96.92-56.11c-0.21-0.13-0.42-0.26-0.63-0.39l82.42-47.72c2.69-1.56,3.6-5,2.05-7.69
			c-1.56-2.69-5-3.61-7.69-2.05l-82.4,47.7c-0.01-0.24-0.02-0.48-0.02-0.72V103.74c0-0.24,0.01-0.47,0.02-0.71l97.52,56.46
			c1.99,1.15,4.12,1.99,6.3,2.51V283.38z M212.63,149.75l-97.56-56.48c0.21-0.14,0.42-0.27,0.63-0.39l96.93-56.12
			c0.22-0.13,0.44-0.24,0.66-0.35v93.2c0,3.11,2.52,5.63,5.63,5.63c3.1,0,5.62-2.52,5.62-5.63v-93.2c0.22,0.11,0.45,0.23,0.66,0.35
			l96.93,56.12c0.22,0.13,0.43,0.26,0.63,0.39l-97.56,56.48C221.32,152,216.5,152,212.63,149.75L212.63,149.75z M328.39,216.05
			c0,0.24-0.01,0.48-0.02,0.72l-82.39-47.7c-2.69-1.55-6.13-0.64-7.69,2.05c-1.56,2.69-0.64,6.13,2.05,7.69l82.41,47.71
			c-0.2,0.13-0.41,0.27-0.62,0.39l-96.92,56.12c-0.22,0.13-0.44,0.24-0.66,0.35V162c2.18-0.53,4.31-1.36,6.3-2.51l97.52-56.46
			c0.01,0.23,0.02,0.47,0.02,0.71V216.05z M328.39,216.05"/>
	</g>
	<path class="st1" d="M370.36,396.58h-14.69l-8.89-17.77c-1.48-2.96-4.07-5.09-7.14-5.98v-79.66c0-3.11-2.52-5.63-5.63-5.63
		c-3.11,0-5.63,2.52-5.63,5.63v79.18h-27.12v-58.74c0-3.11-2.52-5.63-5.63-5.63c-3.11,0-5.63,2.52-5.63,5.63v58.74h-27.12v-38.67
		c0-3.11-2.52-5.63-5.63-5.63c-3.11,0-5.63,2.52-5.63,5.63v38.67h-27.12v-18.61c0-3.11-2.52-5.63-5.62-5.63
		c-3.11,0-5.63,2.52-5.63,5.63v18.61h-27.12v-38.67c0-3.11-2.52-5.63-5.63-5.63c-3.11,0-5.63,2.52-5.63,5.63v38.67h-27.12v-58.74
		c0-3.11-2.52-5.63-5.63-5.63c-3.11,0-5.63,2.52-5.63,5.63v58.74h-27.11v-79.18c0-3.11-2.52-5.63-5.63-5.63
		c-3.11,0-5.63,2.52-5.63,5.63v79.66c-3.06,0.9-5.66,3.02-7.14,5.98l-8.88,17.77h-14.7c-3.11,0-5.63,2.52-5.63,5.63
		c0,3.1,2.52,5.63,5.63,5.63h302.89c3.11,0,5.63-2.52,5.63-5.63C375.98,399.1,373.47,396.58,370.36,396.58L370.36,396.58z
		 M94.74,396.58l6.37-12.74c0.07-0.15,0.22-0.24,0.39-0.24h234.82c0.17,0,0.32,0.09,0.39,0.24l6.37,12.74H94.74z M94.74,396.58"/>
	<path class="st1" d="M103.82,251.19c-3.11,0-5.63,2.52-5.63,5.62v12.11c0,3.11,2.52,5.63,5.63,5.63c3.11,0,5.63-2.52,5.63-5.63
		v-12.11C109.44,253.71,106.92,251.19,103.82,251.19L103.82,251.19z M103.82,251.19"/>
	<path class="st1" d="M142.18,271.64c-3.11,0-5.63,2.52-5.63,5.63v12.11c0,3.11,2.52,5.63,5.63,5.63c3.1,0,5.63-2.52,5.63-5.63
		v-12.11C147.81,274.15,145.29,271.64,142.18,271.64L142.18,271.64z M142.18,271.64"/>
	<path class="st1" d="M180.55,291.7c-3.11,0-5.63,2.52-5.63,5.63v12.11c0,3.11,2.52,5.63,5.63,5.63c3.11,0,5.63-2.52,5.63-5.63
		v-12.11C186.17,294.22,183.65,291.7,180.55,291.7L180.55,291.7z M180.55,291.7"/>
	<path class="st1" d="M218.91,311.77c-3.11,0-5.63,2.52-5.63,5.62v12.12c0,3.11,2.52,5.63,5.63,5.63c3.1,0,5.62-2.52,5.62-5.63
		v-12.12C224.54,314.29,222.02,311.77,218.91,311.77L218.91,311.77z M218.91,311.77"/>
	<path class="st1" d="M334.01,251.19c-3.11,0-5.63,2.52-5.63,5.62v12.11c0,3.11,2.52,5.63,5.63,5.63c3.11,0,5.63-2.52,5.63-5.63
		v-12.11C339.64,253.71,337.12,251.19,334.01,251.19L334.01,251.19z M334.01,251.19"/>
	<path class="st1" d="M295.65,271.64c-3.11,0-5.63,2.52-5.63,5.63v12.11c0,3.11,2.52,5.63,5.63,5.63c3.11,0,5.63-2.52,5.63-5.63
		v-12.11C301.27,274.15,298.75,271.64,295.65,271.64L295.65,271.64z M295.65,271.64"/>
	<path class="st1" d="M257.28,291.7c-3.11,0-5.63,2.52-5.63,5.63v12.11c0,3.11,2.52,5.63,5.63,5.63c3.11,0,5.63-2.52,5.63-5.63
		v-12.11C262.91,294.22,260.39,291.7,257.28,291.7L257.28,291.7z M257.28,291.7"/>
</g>
</svg>
