<svg id="Capa_8" data-name="Capa 8" xmlns="http://www.w3.org/2000/svg" xmlns:xlink="http://www.w3.org/1999/xlink" viewBox="0 0 328 261"><defs><style>.cls-1{fill:#2d2d2d;}.cls-2{fill:url(#Degradado_sin_nombre_60);}.cls-3{fill:url(#Degradado_sin_nombre);}</style><linearGradient id="Degradado_sin_nombre_60" x1="85.08" y1="121.94" x2="216.51" y2="121.94" gradientUnits="userSpaceOnUse"><stop offset="0" stop-color="#fff"/><stop offset="0.13" stop-color="#ececec"/><stop offset="0.39" stop-color="#bcbcbb"/><stop offset="0.75" stop-color="#6f6f6e"/><stop offset="1" stop-color="#373735"/><stop offset="1" stop-color="#242422"/></linearGradient><linearGradient id="Degradado_sin_nombre" x1="79.29" y1="86.59" x2="194.96" y2="86.59" gradientUnits="userSpaceOnUse"><stop offset="0" stop-color="#fff"/><stop offset="1"/></linearGradient></defs><path class="cls-1" d="M204.56,29.4s8.95,46.23,8.95,88c0,55.49-18.2,95.45-18.2,95.45l33.11,25s.55-70.87,4.77-105C237.07,101.58,249,45.2,249,45.2S221.56,33.57,204.56,29.4Z"/><path class="cls-2" d="M168.77,44.17A215.39,215.39,0,0,0,140.43,73.1c-11.58,14.44-22.11,32.77-23,46.08-1.11,17.43,3.13,31.5,10.44,40.86,8.5,10.89,17.85,19.92,28.63,25.06,19.39,9.24,60,14.61,60,14.61S166.05,200,137,188.38c-30.27-12.08-55.4-30.8-51.52-55s15.4-35.86,32.29-51.82A268.54,268.54,0,0,1,168.77,44.17Z"/><path class="cls-3" d="M159.22,40s23.42,6.63,20.29,24.53C177.42,76.46,161.39,93.6,145.73,103c-31.06,18.64-66.44,30.2-66.44,30.2s109.16-16.78,115.43-63.75C198.37,42.08,159.22,40,159.22,40Z"/></svg>