<svg id="Capa_3" data-name="Capa 3" xmlns="http://www.w3.org/2000/svg" viewBox="0 0 328 261"><defs><style>.cls-1{fill:#e8e8e9;}.cls-2{fill:#fff;}.cls-3{fill:#4b4b4b;}</style></defs><rect class="cls-1" x="61" y="28" width="207" height="207"/><rect class="cls-2" x="67.47" y="51.72" width="194.06" height="176.81"/><path class="cls-3" d="M89.41,90.21,88,89.35a6.33,6.33,0,0,1-1.89-1.59A3,3,0,0,1,85.54,86a3.2,3.2,0,0,1,1.07-2.49,4,4,0,0,1,2.76-1,5.19,5.19,0,0,1,3,.92v2.1a4.27,4.27,0,0,0-3-1.34,2.51,2.51,0,0,0-1.5.42,1.28,1.28,0,0,0-.59,1.07,1.72,1.72,0,0,0,.43,1.1,5.36,5.36,0,0,0,1.39,1.06l1.42.85a4.15,4.15,0,0,1,2.38,3.61,3.29,3.29,0,0,1-1.05,2.53,3.83,3.83,0,0,1-2.72,1,5.75,5.75,0,0,1-3.5-1.18V92.26a4.36,4.36,0,0,0,3.48,1.9,2.21,2.21,0,0,0,1.46-.48,1.52,1.52,0,0,0,.58-1.22Q91.12,91.28,89.41,90.21Z"/><path class="cls-3" d="M94.91,82.67h7.36v1.65h-5.5v4h5.31v1.66H96.77v4h5.67v1.65H94.91Z"/><path class="cls-3" d="M104.48,95.65v-13h3.25a4.66,4.66,0,0,1,3.13,1A3.26,3.26,0,0,1,112,86.28a3.42,3.42,0,0,1-.56,2,3.32,3.32,0,0,1-1.63,1.24A5.45,5.45,0,0,1,111,90.6a23.64,23.64,0,0,1,1.67,2.46c.45.73.81,1.29,1.09,1.66l.69.93h-2.22l-.56-.86-.11-.15-.37-.52-.57-.94-.62-1A11.2,11.2,0,0,0,109,90.89a4.14,4.14,0,0,0-.86-.68,2.92,2.92,0,0,0-1.3-.21h-.48v5.65Zm2.41-11.4h-.55v4.1h.7a5.3,5.3,0,0,0,1.94-.24,1.94,1.94,0,0,0,.82-.73,2.19,2.19,0,0,0,.29-1.11,2,2,0,0,0-.32-1.11,1.77,1.77,0,0,0-.92-.71A6.88,6.88,0,0,0,106.89,84.25Z"/><path class="cls-3" d="M122.61,82.67h1.85L119,95.7h-.42l-5.6-13h1.87l3.9,9.11Z"/><path class="cls-3" d="M125.9,82.67h1.86v13H125.9Z"/><path class="cls-3" d="M141.83,92.64v2a9.63,9.63,0,0,1-4.72,1.12,7.2,7.2,0,0,1-3.69-.88,6.43,6.43,0,0,1-2.4-2.4,6.52,6.52,0,0,1-.88-3.32,6.3,6.3,0,0,1,2-4.76,7,7,0,0,1,5-1.94,11.75,11.75,0,0,1,4.54,1.07v2a8.92,8.92,0,0,0-4.45-1.3,5.13,5.13,0,0,0-3.7,1.41,4.95,4.95,0,0,0,0,7,5.16,5.16,0,0,0,3.71,1.38A8.39,8.39,0,0,0,141.83,92.64Z"/><path class="cls-3" d="M144.13,82.67H146v13h-1.86Z"/><path class="cls-3" d="M155.24,82.48a7,7,0,0,1,5,1.91,6.33,6.33,0,0,1,2,4.77,6.22,6.22,0,0,1-2,4.76,7.19,7.19,0,0,1-5.09,1.88,6.78,6.78,0,0,1-4.89-1.88,6.31,6.31,0,0,1-2-4.72,6.42,6.42,0,0,1,2-4.81A6.88,6.88,0,0,1,155.24,82.48Zm.07,1.77a5,5,0,0,0-3.66,1.39,4.74,4.74,0,0,0-1.43,3.56,4.64,4.64,0,0,0,1.44,3.49,5.33,5.33,0,0,0,7.22,0,4.75,4.75,0,0,0,1.45-3.54,4.63,4.63,0,0,0-1.45-3.47A4.93,4.93,0,0,0,155.31,84.25Z"/><path class="cls-3" d="M169.72,95.65v-13h4.11a4.26,4.26,0,0,1,3,1,3.45,3.45,0,0,1,1.1,2.69,3.68,3.68,0,0,1-.56,2,3.23,3.23,0,0,1-1.56,1.26A7.67,7.67,0,0,1,173,90h-1.37v5.63Zm3.79-11.35h-1.92v4.07h2a2.56,2.56,0,0,0,1.75-.54A1.91,1.91,0,0,0,176,86.3C176,85,175.16,84.3,173.51,84.3Z"/><path class="cls-3" d="M188.55,82.67h1.87V90a8.47,8.47,0,0,1-.22,2.25,4.71,4.71,0,0,1-.54,1.27,4,4,0,0,1-.78.91,6.85,6.85,0,0,1-8.1,0,4.06,4.06,0,0,1-.79-.92,4.77,4.77,0,0,1-.53-1.24,9.09,9.09,0,0,1-.21-2.3V82.67h1.87V90a5.4,5.4,0,0,0,.42,2.54,3,3,0,0,0,1.27,1.15,4.39,4.39,0,0,0,2,.43,4,4,0,0,0,2.69-.86,2.65,2.65,0,0,0,.79-1.1,6.76,6.76,0,0,0,.24-2.16ZM187,78.93l-2.1,2.78h-1l1.25-2.78Z"/><path class="cls-3" d="M197.38,95.65H193v-13h3.4a5.9,5.9,0,0,1,2.51.43A3.09,3.09,0,0,1,200.75,86a2.82,2.82,0,0,1-2,2.74A4,4,0,0,1,201,90a3.05,3.05,0,0,1,.84,2.16,3.16,3.16,0,0,1-.51,1.77,3.74,3.74,0,0,1-1.5,1.28A5.64,5.64,0,0,1,197.38,95.65Zm-.93-11.33h-1.6v3.91h1.24a3.12,3.12,0,0,0,2.11-.57,1.89,1.89,0,0,0,.63-1.47C198.83,85,198,84.32,196.45,84.32Zm.14,5.56h-1.74V94h1.83a5.92,5.92,0,0,0,2.07-.24,2,2,0,0,0,.87-.74,1.91,1.91,0,0,0,.33-1.08,1.83,1.83,0,0,0-.35-1.08,2,2,0,0,0-1-.74A6.18,6.18,0,0,0,196.59,89.88Z"/><path class="cls-3" d="M203.7,82.67h1.86V94h5.85v1.69H203.7Z"/><path class="cls-3" d="M213.05,82.67h1.86v13h-1.86Z"/><path class="cls-3" d="M229,92.64v2a9.6,9.6,0,0,1-4.72,1.12,7.19,7.19,0,0,1-3.68-.88,6.43,6.43,0,0,1-2.4-2.4,6.52,6.52,0,0,1-.88-3.32,6.3,6.3,0,0,1,2-4.76,6.94,6.94,0,0,1,5-1.94,11.79,11.79,0,0,1,4.55,1.07v2a9,9,0,0,0-4.46-1.3,5.14,5.14,0,0,0-3.7,1.41,4.66,4.66,0,0,0-1.47,3.52,4.59,4.59,0,0,0,1.45,3.51,5.16,5.16,0,0,0,3.71,1.38A8.34,8.34,0,0,0,229,92.64Z"/><path class="cls-3" d="M237.63,82.48a7,7,0,0,1,5,1.91,6.33,6.33,0,0,1,2,4.77,6.22,6.22,0,0,1-2,4.76,7.19,7.19,0,0,1-5.09,1.88,6.78,6.78,0,0,1-4.89-1.88,6.31,6.31,0,0,1-2-4.72,6.42,6.42,0,0,1,2-4.81A6.88,6.88,0,0,1,237.63,82.48Zm.07,1.77A5,5,0,0,0,234,85.64a4.78,4.78,0,0,0-1.43,3.56,4.64,4.64,0,0,0,1.44,3.49,5.33,5.33,0,0,0,7.22,0,4.76,4.76,0,0,0,1.46-3.54,4.64,4.64,0,0,0-1.46-3.47A4.93,4.93,0,0,0,237.7,84.25Z"/><path class="cls-3" d="M86.1,116.13V104.19h4a8.48,8.48,0,0,1,3.86.73,5.56,5.56,0,0,1,2.26,2.15,6.07,6.07,0,0,1,.38,5.4A6.28,6.28,0,0,1,92,116a16.7,16.7,0,0,1-2.16.09ZM90,105.71H87.81v8.89H90a8.71,8.71,0,0,0,2-.17,4.85,4.85,0,0,0,1.18-.45,4,4,0,0,0,.87-.66,4.44,4.44,0,0,0,1.27-3.24,4.12,4.12,0,0,0-1.3-3.14,4.46,4.46,0,0,0-1.1-.75,4.73,4.73,0,0,0-1.18-.38A12.18,12.18,0,0,0,90,105.71Z"/><path class="cls-3" d="M99.23,104.19H106v1.52h-5.06v3.65h4.89v1.53h-4.89v3.71h5.23v1.53H99.23Z"/><path class="cls-3" d="M112.86,104.19h6.78v1.52h-5.07v3.65h4.89v1.53h-4.89v3.71h5.23v1.53h-6.94Z"/><path class="cls-3" d="M131.13,104.19h1.6v12H131v-9.31l-3.68,4.62H127l-3.72-4.62v9.31h-1.71v-12h1.62l4,4.91Z"/><path class="cls-3" d="M135.21,116.15v-12H139a3.9,3.9,0,0,1,2.73.93,3.17,3.17,0,0,1,1,2.48,3.31,3.31,0,0,1-.52,1.85,3.1,3.1,0,0,1-1.43,1.17,7.35,7.35,0,0,1-2.6.36h-1.27v5.19Zm3.49-10.45h-1.77v3.74h1.87a2.35,2.35,0,0,0,1.61-.5,1.73,1.73,0,0,0,.57-1.4C141,106.31,140.22,105.7,138.7,105.7Z"/><path class="cls-3" d="M144.24,104.19H146v10.4h5.38v1.56h-7.09Z"/><path class="cls-3" d="M152.83,104.19h6.78v1.52h-5.07v3.65h4.9v1.53h-4.9v3.71h5.23v1.53h-6.94Z"/><path class="cls-3" d="M167.46,104a6.41,6.41,0,0,1,4.61,1.75,5.82,5.82,0,0,1,1.84,4.4,5.74,5.74,0,0,1-1.86,4.38,6.61,6.61,0,0,1-4.69,1.73,6.25,6.25,0,0,1-4.5-1.73,5.78,5.78,0,0,1-1.8-4.34,6,6,0,0,1,1.81-4.44A6.33,6.33,0,0,1,167.46,104Zm.07,1.63a4.63,4.63,0,0,0-3.38,1.28,4.37,4.37,0,0,0-1.32,3.28,4.25,4.25,0,0,0,1.33,3.21,4.9,4.9,0,0,0,6.65,0,4.34,4.34,0,0,0,1.34-3.26,4.26,4.26,0,0,0-1.34-3.2A4.53,4.53,0,0,0,167.53,105.65Z"/><path class="cls-3" d="M180.89,104.19h6.77v1.52H182.6v3.65h4.89v1.53H182.6v3.71h5.23v1.53h-6.94Z"/><path class="cls-3" d="M192.61,111.14l-1.3-.79a6,6,0,0,1-1.74-1.47,2.78,2.78,0,0,1-.52-1.67,3,3,0,0,1,1-2.29,3.64,3.64,0,0,1,2.55-.88,4.79,4.79,0,0,1,2.74.84v1.94a3.93,3.93,0,0,0-2.78-1.24,2.3,2.3,0,0,0-1.38.39,1.14,1.14,0,0,0-.53,1,1.52,1.52,0,0,0,.39,1,5,5,0,0,0,1.28,1l1.31.77a3.85,3.85,0,0,1,2.19,3.33,3,3,0,0,1-1,2.33,3.52,3.52,0,0,1-2.5.9,5.25,5.25,0,0,1-3.23-1.09V113a4.05,4.05,0,0,0,3.21,1.76,2,2,0,0,0,1.34-.45,1.4,1.4,0,0,0,.54-1.12C194.19,112.48,193.66,111.79,192.61,111.14Z"/><path class="cls-3" d="M196.66,104.17h10v1.53h-4.17v10.45h-1.72V105.7h-4.1Z"/><path class="cls-3" d="M210.32,104.12h1.21l5.36,12h-1.75l-1.6-3.55h-5.1L207,116.15h-1.76Zm2.52,7-1.93-4.33-1.79,4.33Z"/><path class="cls-3" d="M215.42,104.17h10v1.53h-4.17v10.45h-1.72V105.7h-4.1Z"/><path class="cls-3" d="M229.09,104.12h1.21l5.35,12H233.9l-1.59-3.55h-5.1l-1.49,3.55H224Zm2.52,7-1.93-4.33-1.79,4.33Z"/><path class="cls-3" d="M237,104.19h1.72v10.4h5.38v1.56H237Z"/><rect class="cls-3" x="83.82" y="132.86" width="161.68" height="2.16"/><path class="cls-3" d="M115.57,164.39q-.54-5.34-3.83-7.72a14,14,0,0,0-8.41-2.39,19.82,19.82,0,0,0-4.08.42,11.07,11.07,0,0,0-3.57,1.38,7.39,7.39,0,0,0-2.49,2.6,8,8,0,0,0-.93,4,5.15,5.15,0,0,0,1.35,3.7,10,10,0,0,0,3.6,2.31,29.74,29.74,0,0,0,5.08,1.49q2.83.59,5.81,1.28c2,.46,3.92,1,5.81,1.63a18.23,18.23,0,0,1,5,2.52,12,12,0,0,1,3.57,4.05,14,14,0,0,1-.42,12.8,14.43,14.43,0,0,1-4.53,4.57,20.36,20.36,0,0,1-6.19,2.59,29.33,29.33,0,0,1-14.67-.21,19,19,0,0,1-6.5-3.18,15.19,15.19,0,0,1-4.43-5.43,17.43,17.43,0,0,1-1.62-7.78h6.22a10.74,10.74,0,0,0,4.39,9.06,13.46,13.46,0,0,0,4.57,2.14,21,21,0,0,0,5.43.7,24.13,24.13,0,0,0,4.46-.42,13.22,13.22,0,0,0,4.05-1.42,7.56,7.56,0,0,0,4-7.16,6.25,6.25,0,0,0-1.34-4.15,9.87,9.87,0,0,0-3.57-2.59,26.24,26.24,0,0,0-5-1.66q-2.84-.66-5.81-1.28c-2-.42-3.92-.91-5.81-1.49a20.27,20.27,0,0,1-5.09-2.32A11.33,11.33,0,0,1,87,168.81a10.58,10.58,0,0,1-1.35-5.6,13,13,0,0,1,1.52-6.47,13.26,13.26,0,0,1,4.05-4.5A18.28,18.28,0,0,1,97,149.61a25.61,25.61,0,0,1,6.61-.86,26.37,26.37,0,0,1,7,.9,15.73,15.73,0,0,1,5.68,2.84,14.22,14.22,0,0,1,3.87,4.87,17,17,0,0,1,1.59,7Z"/><path class="cls-3" d="M127.52,149.93h34.11v5.53H134.09v15.71h25.67v5.53H134.09v17.09h27.75v5.53H127.52Z"/><path class="cls-3" d="M167.64,149.93h21.65c4.94,0,8.69,1.28,11.28,3.84s3.87,6.14,3.87,10.75-1.29,8.21-3.87,10.8-6.34,3.85-11.28,3.8H174.21v20.2h-6.57Zm6.57,23.66h12.87q5.59.06,8.19-2.29t2.6-6.78q0-4.43-2.6-6.74t-8.19-2.32H174.21Z"/><path class="cls-3" d="M208.15,149.93h34.11v5.53H214.73v15.71h25.66v5.53H214.73v17.09h27.74v5.53H208.15Z"/></svg>