<svg id="Capa_9" data-name="Capa 9" xmlns="http://www.w3.org/2000/svg" xmlns:xlink="http://www.w3.org/1999/xlink" viewBox="0 0 328 261"><defs><style>.cls-1{fill:#dadada;}.cls-2{fill:url(#Degradado_sin_nombre_7);}.cls-3{fill:url(#Degradado_sin_nombre_7-2);}.cls-4{fill:#fff;}</style><linearGradient id="Degradado_sin_nombre_7" x1="11.04" y1="130.74" x2="121.74" y2="130.74" gradientUnits="userSpaceOnUse"><stop offset="0" stop-color="#959595"/><stop offset="1" stop-color="#717171"/></linearGradient><linearGradient id="Degradado_sin_nombre_7-2" x1="12.42" y1="129.7" x2="105.86" y2="129.7" xlink:href="#Degradado_sin_nombre_7"/></defs><rect class="cls-1" x="9.66" y="71.48" width="308.39" height="118.52"/><path class="cls-2" d="M97.86,82.62a7.86,7.86,0,1,0-3.17,3.62A56.67,56.67,0,0,1,116,130.74C116,161.82,91.41,187,61.1,187,32.67,187,11,162.38,11,162.38s16.11,26.7,51.21,27.39A59.49,59.49,0,0,0,97.86,82.62Z"/><circle class="cls-3" cx="59.14" cy="129.7" r="46.72"/><path class="cls-4" d="M150.17,86.31H176v6.4H157.78v7.41h16.76V106H157.78v8.48h18.65v6.39H150.17Z"/><path class="cls-4" d="M186.36,112.76a3.84,3.84,0,0,0,.46,1.92A4.16,4.16,0,0,0,188,116a5.08,5.08,0,0,0,1.67.75,8,8,0,0,0,2,.24,7.54,7.54,0,0,0,1.53-.17,5.11,5.11,0,0,0,1.45-.53,3.39,3.39,0,0,0,1.09-1,2.56,2.56,0,0,0,.44-1.53,1.88,1.88,0,0,0-.53-1.33,4.82,4.82,0,0,0-1.53-1,15.33,15.33,0,0,0-2.45-.8c-1-.25-2.06-.49-3.29-.75-1-.23-2-.5-2.93-.8a10.12,10.12,0,0,1-2.54-1.21,5.91,5.91,0,0,1-1.8-1.89,5.39,5.39,0,0,1-.68-2.79,7.58,7.58,0,0,1,.95-4,6.93,6.93,0,0,1,2.49-2.47,10.91,10.91,0,0,1,3.49-1.26,21.74,21.74,0,0,1,4-.36,19.65,19.65,0,0,1,3.94.39,10.31,10.31,0,0,1,3.42,1.3,7.87,7.87,0,0,1,2.49,2.45,8.14,8.14,0,0,1,1.19,3.85h-6.54a3,3,0,0,0-1.5-2.69,7,7,0,0,0-3.2-.7,11.39,11.39,0,0,0-1.26.07,4.27,4.27,0,0,0-1.23.32,2.45,2.45,0,0,0-1,.7,1.86,1.86,0,0,0-.39,1.24,1.9,1.9,0,0,0,.68,1.5,5.1,5.1,0,0,0,1.77.94,24.09,24.09,0,0,0,2.5.66c.93.19,1.89.4,2.85.63a29,29,0,0,1,2.94.82,9.61,9.61,0,0,1,2.54,1.28,6.31,6.31,0,0,1,1.79,2,5.85,5.85,0,0,1,.68,2.93,7.58,7.58,0,0,1-3.59,6.83,10.88,10.88,0,0,1-3.65,1.46,20.27,20.27,0,0,1-4.19.43,20.83,20.83,0,0,1-4.27-.43,11,11,0,0,1-3.7-1.48,8.15,8.15,0,0,1-3.81-6.91Z"/><path class="cls-4" d="M207.24,95.86h6.54v3.19h.1a7.59,7.59,0,0,1,3.2-3,9.84,9.84,0,0,1,4.26-.92,10.89,10.89,0,0,1,5.09,1.11,10.62,10.62,0,0,1,3.54,3,12.51,12.51,0,0,1,2.08,4.29,19.1,19.1,0,0,1,.68,5.11,17.26,17.26,0,0,1-.68,4.84,12.36,12.36,0,0,1-2.06,4.12,10.46,10.46,0,0,1-3.44,2.88,10.11,10.11,0,0,1-4.82,1.09,9.51,9.51,0,0,1-4.26-1,8.17,8.17,0,0,1-3.25-2.81h-.1v11.92h-6.88Zm12.65,20.54a5.21,5.21,0,0,0,4.67-2.45,7.35,7.35,0,0,0,1-2.52,15.14,15.14,0,0,0,.29-3,13.88,13.88,0,0,0-.32-3,7.66,7.66,0,0,0-1-2.59,5.87,5.87,0,0,0-1.86-1.85,6,6,0,0,0-5.62,0,5.75,5.75,0,0,0-1.85,1.82,7.85,7.85,0,0,0-1,2.59,15.76,15.76,0,0,0-.29,3,13.75,13.75,0,0,0,.32,3,7.57,7.57,0,0,0,1,2.52,5.56,5.56,0,0,0,1.84,1.77A5.5,5.5,0,0,0,219.89,116.4Z"/><path class="cls-4" d="M236.75,103.56a7.89,7.89,0,0,1,1.21-4A8.22,8.22,0,0,1,240.67,97a11.93,11.93,0,0,1,3.68-1.38,21.36,21.36,0,0,1,4.17-.41,29.46,29.46,0,0,1,3.83.26,11.62,11.62,0,0,1,3.53,1,6.79,6.79,0,0,1,2.62,2.18,6,6,0,0,1,1,3.63v13a26.18,26.18,0,0,0,.19,3.25,5.88,5.88,0,0,0,.68,2.32h-7a9.29,9.29,0,0,1-.31-1.18,10.27,10.27,0,0,1-.17-1.24,9.2,9.2,0,0,1-3.88,2.4,15,15,0,0,1-4.55.7,11.52,11.52,0,0,1-3.34-.46,8.12,8.12,0,0,1-2.72-1.38,6.29,6.29,0,0,1-1.81-2.32,7.85,7.85,0,0,1-.66-3.35,7.43,7.43,0,0,1,.73-3.51,5.92,5.92,0,0,1,1.94-2.2,9.07,9.07,0,0,1,2.73-1.24,28.92,28.92,0,0,1,3.13-.65c1.06-.16,2.08-.29,3.05-.39a17.17,17.17,0,0,0,2.59-.44,4.47,4.47,0,0,0,1.82-.85,2,2,0,0,0,.68-1.62,3.58,3.58,0,0,0-.37-1.77,2.67,2.67,0,0,0-1-1,3.75,3.75,0,0,0-1.41-.49,11.61,11.61,0,0,0-1.72-.12,5.25,5.25,0,0,0-3.17.87,3.86,3.86,0,0,0-1.38,2.91Zm15.89,5.09a3,3,0,0,1-1.09.6,11.14,11.14,0,0,1-1.41.37c-.5.09-1,.17-1.6.24s-1.1.14-1.62.24a11.7,11.7,0,0,0-1.55.39,4.67,4.67,0,0,0-1.28.65,3.14,3.14,0,0,0-.9,1.07,3.31,3.31,0,0,0-.34,1.57,3.19,3.19,0,0,0,.34,1.58,2.76,2.76,0,0,0,.92,1,3.8,3.8,0,0,0,1.36.5,8.35,8.35,0,0,0,1.6.15,6.14,6.14,0,0,0,3.15-.68,4.47,4.47,0,0,0,1.64-1.62,5.11,5.11,0,0,0,.66-1.92,13.13,13.13,0,0,0,.12-1.55Z"/><path class="cls-4" d="M265,95.86h6.54v3.48h.15a8,8,0,0,1,3.39-3.14,9.6,9.6,0,0,1,4.26-1,11.71,11.71,0,0,1,4.53.75A6.71,6.71,0,0,1,286.7,98a8.11,8.11,0,0,1,1.42,3.25,19.78,19.78,0,0,1,.42,4.24v15.4h-6.88V106.76a8.54,8.54,0,0,0-1-4.63,3.75,3.75,0,0,0-3.41-1.53,4.75,4.75,0,0,0-4.07,1.68q-1.26,1.66-1.26,5.49V120.9H265ZM285.73,86a10.46,10.46,0,0,1-.54,2,6.56,6.56,0,0,1-.92,1.68,4.74,4.74,0,0,1-1.52,1.3,4.91,4.91,0,0,1-2.45.54,8.57,8.57,0,0,1-1.67-.15,17.14,17.14,0,0,1-2.25-.68l-1.89-.6a4.47,4.47,0,0,0-1.41-.22,1.85,1.85,0,0,0-1.43.56,3.41,3.41,0,0,0-.75,1.47H268a11.53,11.53,0,0,1,.58-2.13,6.45,6.45,0,0,1,1.09-1.86,5.29,5.29,0,0,1,1.77-1.38,4.85,4.85,0,0,1,2.22-.54,6.61,6.61,0,0,1,1.46.17,15.84,15.84,0,0,1,2,.68l1.63.54a5,5,0,0,0,1.52.26,2.32,2.32,0,0,0,1.36-.35,2.47,2.47,0,0,0,.77-1.3Z"/><path class="cls-4" d="M293.67,103.56a8,8,0,0,1,1.21-4A8.25,8.25,0,0,1,297.6,97a11.75,11.75,0,0,1,3.68-1.38,21.19,21.19,0,0,1,4.16-.41,29.34,29.34,0,0,1,3.83.26,11.76,11.76,0,0,1,3.54,1,6.75,6.75,0,0,1,2.61,2.18,6,6,0,0,1,1,3.63v13a28.27,28.27,0,0,0,.19,3.25,5.88,5.88,0,0,0,.68,2.32h-7a9.32,9.32,0,0,1-.32-1.18,10.27,10.27,0,0,1-.17-1.24,9.22,9.22,0,0,1-3.87,2.4,15.07,15.07,0,0,1-4.56.7,11.57,11.57,0,0,1-3.34-.46,8.07,8.07,0,0,1-2.71-1.38,6.32,6.32,0,0,1-1.82-2.32,7.85,7.85,0,0,1-.65-3.35,7.56,7.56,0,0,1,.72-3.51,6,6,0,0,1,1.94-2.2,9.12,9.12,0,0,1,2.74-1.24,29.25,29.25,0,0,1,3.12-.65c1.07-.16,2.09-.29,3.05-.39a17.32,17.32,0,0,0,2.6-.44,4.42,4.42,0,0,0,1.81-.85,2,2,0,0,0,.68-1.62,3.7,3.7,0,0,0-.36-1.77,2.69,2.69,0,0,0-1-1,3.63,3.63,0,0,0-1.41-.49,11.51,11.51,0,0,0-1.72-.12,5.25,5.25,0,0,0-3.17.87,3.86,3.86,0,0,0-1.38,2.91Zm15.89,5.09a2.94,2.94,0,0,1-1.09.6,10.56,10.56,0,0,1-1.4.37c-.5.09-1,.17-1.6.24s-1.11.14-1.62.24a11.85,11.85,0,0,0-1.56.39,4.67,4.67,0,0,0-1.28.65,3.14,3.14,0,0,0-.9,1.07,3.44,3.44,0,0,0-.33,1.57,3.31,3.31,0,0,0,.33,1.58,2.79,2.79,0,0,0,.93,1,3.68,3.68,0,0,0,1.35.5,8.43,8.43,0,0,0,1.6.15,6.09,6.09,0,0,0,3.15-.68,4.58,4.58,0,0,0,1.65-1.62,5.27,5.27,0,0,0,.65-1.92,13.13,13.13,0,0,0,.12-1.55Z"/><path class="cls-4" d="M180.89,169.9H177l-.93-4.11a14.4,14.4,0,0,1-4.89,3.86,13.86,13.86,0,0,1-5.63,1.08,16.54,16.54,0,0,1-7-1.44,15.65,15.65,0,0,1-5.26-3.94,17.5,17.5,0,0,1-3.3-5.83,22.34,22.34,0,0,1,0-14.15,17.35,17.35,0,0,1,3.3-5.82,15.73,15.73,0,0,1,5.26-4,16.25,16.25,0,0,1,7-1.47,19.27,19.27,0,0,1,5.41.76,14.56,14.56,0,0,1,4.57,2.25,12.53,12.53,0,0,1,3.33,3.75,13.17,13.17,0,0,1,1.67,5.19h-6a7.5,7.5,0,0,0-3.08-5.19,8.81,8.81,0,0,0-2.74-1.32,11.11,11.11,0,0,0-3.18-.44,9.78,9.78,0,0,0-4.82,1.12,9.49,9.49,0,0,0-3.31,3,13.43,13.43,0,0,0-1.88,4.29,19.63,19.63,0,0,0,0,9.79,13.28,13.28,0,0,0,1.88,4.28,9.4,9.4,0,0,0,3.31,3,9.79,9.79,0,0,0,4.82,1.13,11.49,11.49,0,0,0,4.16-.61,8.25,8.25,0,0,0,3.06-1.91,8.09,8.09,0,0,0,1.88-3.06,12.72,12.72,0,0,0,.69-4H166v-4.65h14.88Z"/><path class="cls-4" d="M186.37,135H192v35h-5.58Z"/><path class="cls-4" d="M209.09,170.58a13.74,13.74,0,0,1-5.41-1,11.51,11.51,0,0,1-4-2.77,11.73,11.73,0,0,1-2.49-4.21,17.13,17.13,0,0,1,0-10.72,11.91,11.91,0,0,1,2.49-4.21,11.62,11.62,0,0,1,4-2.76,15,15,0,0,1,10.81,0,11.53,11.53,0,0,1,4,2.76,12.08,12.08,0,0,1,2.5,4.21,17.32,17.32,0,0,1,0,10.72,11.9,11.9,0,0,1-2.5,4.21,11.42,11.42,0,0,1-4,2.77A13.72,13.72,0,0,1,209.09,170.58Zm0-4.4a6.44,6.44,0,0,0,3.23-.78,7,7,0,0,0,2.25-2.06,9,9,0,0,0,1.3-2.86,13,13,0,0,0,0-6.49,8.6,8.6,0,0,0-1.3-2.86,7,7,0,0,0-2.25-2,7.1,7.1,0,0,0-6.47,0,7,7,0,0,0-2.25,2,8.58,8.58,0,0,0-1.29,2.86,12.75,12.75,0,0,0,0,6.49,9,9,0,0,0,1.29,2.86,7,7,0,0,0,2.25,2.06A6.45,6.45,0,0,0,209.09,166.18Z"/><path class="cls-4" d="M226.12,135h5.58v12.92h.1a7.27,7.27,0,0,1,1.42-1.66,8.84,8.84,0,0,1,1.83-1.25,9.42,9.42,0,0,1,2.11-.79,9.1,9.1,0,0,1,2.18-.27,12.08,12.08,0,0,1,5.21,1.06,10.18,10.18,0,0,1,3.7,2.89,12.5,12.5,0,0,1,2.2,4.28,18.74,18.74,0,0,1,.07,10.18,13.07,13.07,0,0,1-2,4.24,9.82,9.82,0,0,1-8.25,4,18.59,18.59,0,0,1-2.57-.17,9.28,9.28,0,0,1-2.47-.66,8.13,8.13,0,0,1-2.13-1.27,6.07,6.07,0,0,1-1.59-2.06h-.1v3.48h-5.29Zm19.48,22.32a12.38,12.38,0,0,0-.44-3.33,8.83,8.83,0,0,0-1.32-2.86,6.82,6.82,0,0,0-2.2-2,5.94,5.94,0,0,0-3-.76,6.16,6.16,0,0,0-5.31,2.45,10.8,10.8,0,0,0-1.78,6.51,13,13,0,0,0,.46,3.55,8,8,0,0,0,1.4,2.81,6.82,6.82,0,0,0,2.22,1.86,7,7,0,0,0,6.25-.09,6.83,6.83,0,0,0,2.17-2,8.28,8.28,0,0,0,1.23-2.84A14.65,14.65,0,0,0,245.6,157.27Z"/><path class="cls-4" d="M276.54,164.27a3,3,0,0,0,.27,1.47,1.14,1.14,0,0,0,1.05.44h.59a3.48,3.48,0,0,0,.79-.1V170l-.76.22-1,.22c-.32.06-.65.11-1,.15s-.6,0-.83,0a5.36,5.36,0,0,1-2.84-.68,3.44,3.44,0,0,1-1.47-2.4,9.85,9.85,0,0,1-4.08,2.35,16.13,16.13,0,0,1-4.68.73,11.45,11.45,0,0,1-3.28-.46,8.75,8.75,0,0,1-2.77-1.37,6.56,6.56,0,0,1-1.9-2.3,7,7,0,0,1-.71-3.26,7.56,7.56,0,0,1,.85-3.82,6.36,6.36,0,0,1,2.25-2.3,10.46,10.46,0,0,1,3.14-1.2c1.16-.24,2.32-.43,3.5-.56,1-.2,2-.33,2.89-.42a14,14,0,0,0,2.42-.41,3.74,3.74,0,0,0,1.66-.91,2.47,2.47,0,0,0,.62-1.83,2.9,2.9,0,0,0-.52-1.77,3.58,3.58,0,0,0-1.27-1.05,5.63,5.63,0,0,0-1.69-.49,13.82,13.82,0,0,0-1.76-.12,7,7,0,0,0-3.87,1,3.81,3.81,0,0,0-1.71,3h-5.58a8.38,8.38,0,0,1,1.17-4.06,8.1,8.1,0,0,1,2.62-2.59,10.53,10.53,0,0,1,3.6-1.37,21.53,21.53,0,0,1,4.11-.4,17.41,17.41,0,0,1,3.67.4,10.41,10.41,0,0,1,3.26,1.27,7,7,0,0,1,2.32,2.28,6.21,6.21,0,0,1,.88,3.4ZM271,157.22a6.66,6.66,0,0,1-3.13,1c-1.24.12-2.48.29-3.72.52a11.85,11.85,0,0,0-1.71.41,5.07,5.07,0,0,0-1.47.74,3.27,3.27,0,0,0-1,1.22,4.28,4.28,0,0,0-.36,1.84,2.36,2.36,0,0,0,.53,1.56,4,4,0,0,0,1.3,1,6.26,6.26,0,0,0,1.67.51,10.08,10.08,0,0,0,1.64.15,8.61,8.61,0,0,0,2-.25,6.54,6.54,0,0,0,2-.83,5.42,5.42,0,0,0,1.6-1.49,3.83,3.83,0,0,0,.63-2.23Z"/><path class="cls-4" d="M282.17,135h5.58v35h-5.58Z"/></svg>