<svg id="Capa_10" data-name="Capa 10" xmlns="http://www.w3.org/2000/svg" viewBox="0 0 328 261"><defs><style>.cls-1{fill:#fffdfd;}.cls-2{fill:#787878;}.cls-3{fill:#2c2c2c;}.cls-4{fill:#a1a1a1;}.cls-5{fill:#fff;}</style></defs><rect class="cls-1" x="-0.98" y="72" width="329.27" height="115"/><path class="cls-2" d="M197.33,152.18l-1.91.86s-1.71-.07-1.64.13.85.66.85.66L194.5,155h-6.77a12.17,12.17,0,0,0,2,2.57c.66.39,0,1.38,0,1.38l.72.19v2.63s-.52,0-.52.27.46.72.46.72H176.48L181,174.93l10.72,11.58,7.5.13Z"/><path class="cls-2" d="M218.7,182.3V171.45s-.79-.39-.66-.72,1-.73,1-.73l-.06-3.55.26-.19s0-2.5.2-2.44a8.63,8.63,0,0,1,.46,2.11s.66-1.19,1-1.25.13-1.19.39-1.19.72,2.37.72,2.37.73-1.38,1.19-1.45.19-3.35.19-3.35-.52-.06-.46-.53a.63.63,0,0,1,.53-.52,19.78,19.78,0,0,1-.13-3c.13-.52.59-1,.72-1.51s-.2-2.1.2-2.17.85,1.84,1.12,1.84.39-2,.72-2,1.25,3.49,1.25,3.49h5.52l.2-10s-.43-.14-.43-.43.43-.63.43-.63l.39-7.36a.39.39,0,0,1-.39-.4c0-.39.59-.59.59-.59v-.85l-.39-.4c-.13-.13.59-.46.59-.46l.06-2.69a2.32,2.32,0,0,1-.13-.92c.07-.4.27-.13.27-.13s-.07-1.65.26-1.65.53,1.51.53,1.51a4.3,4.3,0,0,0,.78.14c.27,0,1.25-6.45,1.25-6.45s0-3.15.46-3.15.92,4.93.92,4.93l.6.19-.07-13.47L245,98.73s2.69,9.27,2.82,10.85.73,5.78.73,5.78l3.48-.13,7.23,42.15,3.62,5,2.11,1.11,2.16,2.24,1.39-2.89,9.86-4.54,1.77,1.18,1.52,1.52,1.11.92.73.06a12.48,12.48,0,0,1,1.77-1.84c.79-.59,5.26-2.76,5.26-2.76l8.75-.53.66,4.93,1.7,1.65,1.12-.4,3.82.13.39-.78s-.79-.53-.72-.86,2.56-.33,2.56-.33L323,159.88l.33-5.2h6.44L331,186.77H269.52l-51.22-.2Z"/><path class="cls-2" d="M158.25,164.37l-.51-4.76-1.44-6.44s-5.13-2-6.71-2c-1,0-5.58,1.41-9.05,2.52a.87.87,0,0,0-.06-.38h-1.95a9,9,0,0,0-.12-2.22,9.43,9.43,0,0,0-2.42-1,8.83,8.83,0,0,0-.09-1.83c-.15-.29-1.19-.79-1.19-.79v-1.77l.87-.18v-.69h-.48c-.13-.33-1-.59-2.19-.65a.54.54,0,0,0-.59-.44.54.54,0,0,0-.59.46c-1,.08-1.8.32-1.92.63h-.51v.69l.92.19v1.76s-1,.5-1.18.79a8.29,8.29,0,0,0-.1,1.83,9.25,9.25,0,0,0-2.41,1,9.1,9.1,0,0,0-.13,2.22h-1.15V141.58h.63a.16.16,0,0,0,.16-.16v-.26a.17.17,0,0,0-.16-.17h-.63v-.57a.17.17,0,0,0-.16-.17h-3.31a4.84,4.84,0,0,0,1-1.1,3.18,3.18,0,0,0-1.2-.16,1.63,1.63,0,0,0-1.37-1.49v-1.31a.39.39,0,0,0,.25-.36.38.38,0,0,0-.76,0,.38.38,0,0,0,.22.34v1.33a1.61,1.61,0,0,0-1.47,1.45c-.71,0-1.39.06-1.39.2s.59.66,1.16,1.1H115a.17.17,0,0,0-.16.17V141h-.87a.17.17,0,0,0-.17.17v.26a.16.16,0,0,0,.17.16h.87v11.74h-1.11a9.1,9.1,0,0,0-.13-2.22,9.25,9.25,0,0,0-2.41-1,8.29,8.29,0,0,0-.1-1.83c-.15-.3-1.18-.79-1.18-.79v-1.77l.86-.19v-.69h-.48c-.13-.32-1-.59-2.18-.64a.55.55,0,0,0-.59-.44c-.33,0-.59.2-.59.45-1,.08-1.81.33-1.93.63h-.51v.69l.93.2v1.76s-1,.49-1.19.79a8.83,8.83,0,0,0-.09,1.83,9.43,9.43,0,0,0-2.42,1,9,9,0,0,0-.12,2.22h-2s-.15.39,0,.49A18.44,18.44,0,0,1,102,155.1c.13.22,0,4.31,0,5l-.52.19-2,.79-1.19,1.11V135.43a1.29,1.29,0,0,0,.27-.08c.39-.2.32-.92.32-.92L97,132.72v-2.1s1.12.26,1.31,0-1.9-2-1.9-2h-.64l-3.05-3.35v-.75c.43-.27.86-.6.86-.77s-.42-.38-.86-.57v-4.06c.46-.16.89-.38.92-.63.05-.4-1.07-1.2-2.46-1.54l-.43-.46a1.14,1.14,0,0,0,.41-.9c0-.67-1.49-8.35-1.49-8.35s-1.54,7.63-1.54,8.35a1.08,1.08,0,0,0,.35.92l-.4.44c-1.39.34-2.52,1.14-2.47,1.54,0,.25.47.47.92.63v4.06c-.43.19-.85.41-.85.57s.43.5.85.77v.75l-3,3.35h-.64s-2.1,1.77-1.91,2,1.32,0,1.32,0v2.1l-1.91,1.71s-.06.72.33.92a1.16,1.16,0,0,0,.26.08v3H79.35v-3.81l.18,0c.28-.14.23-.64.23-.64l-1.32-1.18V131.3s.77.18.91,0S78,129.89,78,129.89h-.44l-2.11-2.32v-.51c.3-.19.6-.42.6-.53s-.3-.27-.6-.4v-2.81c.32-.11.62-.26.64-.43s-.74-.83-1.71-1.07l-.29-.32a1.1,1.1,0,0,0,.71-1.07c0-.67-1.49-8.35-1.49-8.35s-1.54,7.62-1.54,8.35a1,1,0,0,0,.73,1.11l-.26.28c-1,.24-1.74.79-1.7,1.07s.32.32.63.43v2.81c-.3.13-.59.29-.59.4s.3.34.59.53v.51l-2.1,2.32h-.44s-1.46,1.23-1.32,1.41.91,0,.91,0v1.46l-1.32,1.18s-.05.5.22.64l.19,0v3.81H33.73v-3.81l.18,0c.28-.14.23-.64.23-.64l-1.32-1.18V131.3s.78.18.91,0-1.32-1.41-1.32-1.41H32l-2.1-2.32v-.51c.29-.19.59-.42.59-.53s-.29-.27-.59-.4v-2.81c.31-.11.61-.26.63-.43s-.74-.83-1.7-1.07l-.26-.28a1,1,0,0,0,.72-1.11c0-.73-1.53-8.35-1.53-8.35s-1.49,7.68-1.49,8.35a1.1,1.1,0,0,0,.7,1.07l-.29.32c-1,.24-1.74.79-1.7,1.07s.32.32.63.43v2.81c-.29.13-.59.29-.59.4s.3.34.59.53v.51l-2.1,2.32H23s-1.46,1.23-1.32,1.41.91,0,.91,0v1.46l-1.32,1.18s0,.5.23.64l.18,0v3.81H20.13v-3a1.12,1.12,0,0,0,.27-.08c.39-.2.33-.92.33-.92l-1.91-1.71v-2.1s1.12.26,1.31,0-1.9-2-1.9-2h-.64l-3-3.35v-.75c.42-.27.85-.6.85-.77s-.42-.38-.85-.57v-4.06c.45-.16.89-.38.92-.63,0-.4-1.08-1.2-2.47-1.54l-.4-.44a1.08,1.08,0,0,0,.35-.92c0-.72-1.54-8.35-1.54-8.35s-1.49,7.68-1.49,8.35a1.14,1.14,0,0,0,.41.9l-.43.46c-1.39.34-2.52,1.14-2.46,1.54,0,.25.46.47.92.63v4.06c-.44.19-.86.41-.86.57s.43.5.86.77v.75l-3,3.35H4.67s-2.1,1.77-1.9,2,1.31,0,1.31,0v2.1l-1.91,1.71s-.06.72.33.92a1.12,1.12,0,0,0,.27.08v32.4l.19,0v18.46H79.68V187H190.35v-22.6Z"/><path class="cls-3" d="M325,185.42V94.26a4.51,4.51,0,0,0-1.84-.66c-.79,0-3.95.92-6.45.92s-6.84-.79-7.36-.79a6.88,6.88,0,0,0-2,.92v90.77h-4.29V104.07l-5.52-3.15-1.58.39v3.75h-1s.59-.59-.4-1-7.49.59-7.49.59v80.76H283l-2.73-77.21-2.17-3.35L269,111.57l-1.37,73.85h-2.38V106.63h-2v-1.18H251.84v1.18h-2.76v78.79h-5c0-.7.08-2.72.08-2.72s.66-.12.66-.45-.68-.62-.68-.62-.31-.71-.59-.82l-.05,0,0-.35a8.16,8.16,0,0,1-1.63-.29c-.15-.15-.2-1-.54-1.09s-1.73,0-1.73,0l0-6.71s0-.39-.49-.39a.86.86,0,0,0-.69.25h-.33l-.07-.72s.52-.15.52-.51-.6-.74-.6-.74,0-.87-.27-.87-.35.87-.35.87-2.23.35-2.54-.54-.2-6.23-.2-6.64-.15-1.82-.39-1.82-.64,1.6-.64,1.6h-2l0-1.08s.24,0,.24-.26-.38-.2-.53-.2-.19-.8-1.14-.8-1,.8-1.16.8-.53,0-.53.2.24.26.24.26l0,1.08h-2s-.4-1.6-.64-1.6-.39,1.4-.39,1.82.11,5.74-.2,6.64-2.54.54-2.54.54,0-.87-.35-.87-.27.87-.27.87-.6.38-.6.74.52.51.52.51l-.07.72h-.33a.89.89,0,0,0-.69-.25c-.49,0-.49.39-.49.39l.05,6.71s-1.38-.05-1.73,0-.39.94-.54,1.09a4.82,4.82,0,0,1-1.29.25c-.44-13.67-1.6-47.05-2.38-50.81-1-4.73-3.25-14.79-8.28-14.79H206c-5,0-7.3,10.06-8.28,14.79-.92,4.39-2.34,49.31-2.54,55.83h-2.58l-.11-9.56-.84-.05s-.05-2.07-.09-2.32-.45-.2-.45-.2,0-3.25,0-3.5-.39-.35-.39-.35h-.32a7.4,7.4,0,0,0,.66-2,21.33,21.33,0,0,0-.86-3.22,22.72,22.72,0,0,0-.92,3.22,7.58,7.58,0,0,0,.71,2h-1.61a7.4,7.4,0,0,0,.66-2,21.33,21.33,0,0,0-.86-3.22,22.72,22.72,0,0,0-.92,3.22,7.64,7.64,0,0,0,.72,2h-1.64a7.07,7.07,0,0,0,.66-2,21.53,21.53,0,0,0-.85-3.22,22.72,22.72,0,0,0-.92,3.22,7.58,7.58,0,0,0,.71,2h-1.57a7.4,7.4,0,0,0,.66-2,21.33,21.33,0,0,0-.86-3.22,22.72,22.72,0,0,0-.92,3.22,7.64,7.64,0,0,0,.72,2H182a7.88,7.88,0,0,0,.72-2.13,21.33,21.33,0,0,0-.86-3.22,22.72,22.72,0,0,0-.92,3.22,8.19,8.19,0,0,0,.78,2.13h-1.8s-.69-4.24-.79-4.93-1.77-.39-1.77-.39l-.15-1.61-1-17.19c.78-.08.93-.25.93-.46V143.7c0-.2-.11-.43-1.06-.52l-.48-8.24a1.45,1.45,0,0,0-.15-2.6l-.11-1.91a1.66,1.66,0,1,0-1-.05l-.12,2a1.43,1.43,0,0,0-.75,1.27,1.45,1.45,0,0,0,.6,1.17l-.5,8.37c-.74.12-.88.34-.88.48s0,1,0,1.17,0,.36.76.44l-.71,12-1-17.18c.79-.08.94-.25.94-.45v-1.16c0-.21-.12-.43-1.06-.53l-.48-8.24a1.45,1.45,0,0,0-.15-2.6l-.12-1.91a1.65,1.65,0,1,0-1,0l-.12,2a1.46,1.46,0,0,0-.75,1.27,1.43,1.43,0,0,0,.61,1.17l-.51,8.37c-.74.12-.87.34-.87.49s0,1,0,1.16,0,.37.77.44L168,154.89a2.9,2.9,0,0,1-1.09.38c-.48,0-.91-1.18-1.26-1.65l.65-.67a.16.16,0,0,0,0-.24l-.8-.78a.16.16,0,0,0-.23,0l-.78.8a.17.17,0,0,0,0,.23l.68.66c-.25.44-.47,1.5-1.09,1.71a1.49,1.49,0,0,1-1.18-.26l-.9-15c.73-.07.77-.23.77-.44s0-.95,0-1.16-.14-.37-.88-.49l-.5-8.37a1.45,1.45,0,0,0-.15-2.44l-.12-2a1.64,1.64,0,1,0-2.22-1.53,1.65,1.65,0,0,0,1.2,1.58l-.11,1.91a1.45,1.45,0,0,0-.16,2.6l-.48,8.24c-.94.1-1.06.32-1.06.53v1.16c0,.2.15.37.94.45l-1,17.18-.72-12c.73-.08.77-.23.77-.44s0-1,0-1.17-.13-.36-.88-.48l-.5-8.37a1.42,1.42,0,0,0,.6-1.17,1.44,1.44,0,0,0-.74-1.27l-.13-2a1.64,1.64,0,1,0-2.22-1.54,1.66,1.66,0,0,0,1.2,1.59l-.11,1.91a1.45,1.45,0,0,0-.15,2.6l-.48,8.24c-.94.09-1.06.32-1.06.52v1.16c0,.21.15.38.94.46l-1,17.05a2,2,0,0,1-.76.27.89.89,0,0,1-.43-.12l-1.78-7.44-.16-2a.69.69,0,0,0,.47-.58c0-.4-.48-.73-1.07-.74s-1.09.31-1.1.71a.73.73,0,0,0,.54.63l-.14,1.87-.14.49-1.66,6.14h-.14l-1.57-6.54-.16-2a.7.7,0,0,0,.48-.58c0-.4-.48-.73-1.08-.74s-1.09.31-1.09.71a.71.71,0,0,0,.54.63l-.15,1.87-.13.49-1.63,6-1.54-6.43-.17-2a.68.68,0,0,0,.48-.58c0-.4-.48-.73-1.08-.74s-1.09.31-1.09.71a.73.73,0,0,0,.54.63l-.15,1.87-.13.49-1.73,6.41-1.64-6.82-.16-2a.69.69,0,0,0,.47-.58c0-.4-.47-.73-1.07-.74s-1.09.31-1.09.71a.71.71,0,0,0,.54.63l-.15,1.87-.13.49-1.87,6.91h-.14v23h-5.08l-1.07-23.08a3,3,0,0,0-2.2-1.34,4.42,4.42,0,0,0-2.59,1.34,7.45,7.45,0,0,1-.24-1.67c0-.79-1.09-1-1.09-1s.14-.72-.58-.72c-.33,0-.43.39-.56.92s-.26,1-.26,1l-2.3-1.32a1.77,1.77,0,0,0-.17-.79c-.19-.46-.52-.49-.52-.49l-.25-.76a.94.94,0,0,0,.4-.77.94.94,0,1,0-1.51.74l-.39.79s-1,.2-1,.85a.72.72,0,0,0,.56.76l0,.49-2.1.92a7.92,7.92,0,0,1-.33-.82c-.13-.39-.92-.56-.92-.56a2.23,2.23,0,0,0,.16-.82,1.42,1.42,0,0,0-1.1-1.46l-.14-1.12a1.42,1.42,0,0,0,.7-1.22,1.41,1.41,0,1,0-2.81,0,1.41,1.41,0,0,0,.81,1.27l-.1,1a2.25,2.25,0,0,0-1.27.82c-.33.4,0,1.18,0,1.18a.52.52,0,0,0-.46.14,3.21,3.21,0,0,0-.4,1,6.33,6.33,0,0,0-2.63-1.08,17,17,0,0,0-2.92.65,10.13,10.13,0,0,0-.36-2.46c-.27-.4-1.42-.23-1.42-.23s-.33-.86-.72-.86-.59.89-.66,1.42a2.24,2.24,0,0,1-.72,1.08.68.68,0,0,0-.69-.65c-.79,0-1,3.35-1,3.35l-2.27-.69s-.06-1-.13-1.45-.46-.13-.66-.59.13-1.38.07-1.78-.89-1-.89-1a3.91,3.91,0,0,0,0-1.48c-.2-.33-1.19-.33-1.52-.13s-.09,1.67-.09,1.67a1.53,1.53,0,0,0-1.06.73c-.39.65-.09,1.9-.55,2.63s-3.56,1.51-4,2.17,0,2.5-.52,3.28-2.76,1.19-2.76,1.19l-.45,18.9h-4c-.75-1.46-4.6-9.11-4.6-13.07,0-.51.42-.85.94-1.08a3.14,3.14,0,0,0,.93.1,33.33,33.33,0,0,0,.79,4.14c.2.1.35.15.44,0s0-4.09,0-4.09,2.64-1,2.57-2c-.08-1.18-1.46-1.56-2.86-1.62-.35-2.45-1.63-11.11-1.93-11.11s0,8.76,0,11.18c-1.32.17-2.54.62-2.54,1.45a1.65,1.65,0,0,0,.81,1.19,2.35,2.35,0,0,0-.91,1.91c0,5.37,3.68,11.71,4.48,13H61.69a9.49,9.49,0,0,0-2.71-.64,11.13,11.13,0,0,0-3.33.64H54.36L48.4,165s-.59-2.5-1.32-2.31-.39,1.25-.39,1.25l.26,1.32L17.27,185.42h-10c1.69-3.49,6.83-14.26,6.17-15.08-.78-1-5.12,2.36-5.12,2.36s1.18-9.07-1.38-10.45-9.08,6.31-9.08,6.31l-2.17,17.95h1.53V187H328.29v-1.58ZM310.75,96.3s5.13.39,6.05.39,5.46-.46,5.46-.46v6.57H310.75Z"/><rect class="cls-4" x="-1" y="84.49" width="246.36" height="31.7"/><path class="cls-5" d="M19.63,95.6l-.78,4h3.34v1.52H18.57l-1,5.06H16l1-5.06H13.39l-1,5.06h-1.6l.94-5.06H8.68V99.6h3.38l.8-4H9.6V94.1h3.52l1-5.13h1.64l-1,5.13h3.6l1-5.13h1.57l-1,5.13H23v1.5Zm-6,4h3.57l.78-4H14.45Z"/><path class="cls-5" d="M31.32,106.18h-2V90.75H23.87V89H36.78v1.78H31.32Z"/><path class="cls-5" d="M47.9,106.18V97.83a3.4,3.4,0,0,0-.71-2.35,2.92,2.92,0,0,0-2.25-.78,3.7,3.7,0,0,0-3,1.11A5.65,5.65,0,0,0,41,99.44v6.74h-2V87.86h2v5.55a11,11,0,0,1-.1,1.66h.12a4,4,0,0,1,1.64-1.47,5.31,5.31,0,0,1,2.44-.53,5,5,0,0,1,3.55,1.12,4.77,4.77,0,0,1,1.18,3.57v8.42Z"/><path class="cls-5" d="M53.71,89.78a1.27,1.27,0,0,1,.33-1,1.14,1.14,0,0,1,.82-.32,1.17,1.17,0,0,1,.82.32,1.58,1.58,0,0,1,0,2,1.14,1.14,0,0,1-.82.33,1.11,1.11,0,0,1-.82-.33A1.3,1.3,0,0,1,53.71,89.78Zm2.12,16.4h-2V93.28h2Z"/><path class="cls-5" d="M68.3,102.66A3.24,3.24,0,0,1,67,105.44a6.33,6.33,0,0,1-3.77,1,8.18,8.18,0,0,1-4-.81v-1.82a9.86,9.86,0,0,0,2,.75,8.39,8.39,0,0,0,2.06.27,4.7,4.7,0,0,0,2.35-.49,1.68,1.68,0,0,0,.17-2.78,10.06,10.06,0,0,0-2.55-1.27,14.41,14.41,0,0,1-2.56-1.17A3.5,3.5,0,0,1,59.52,98a3.14,3.14,0,0,1,.91-4A6.07,6.07,0,0,1,64,93a10.25,10.25,0,0,1,4.07.85l-.7,1.59a9.37,9.37,0,0,0-3.52-.8,4,4,0,0,0-2.09.43A1.37,1.37,0,0,0,61,96.32a1.44,1.44,0,0,0,.27.88,2.59,2.59,0,0,0,.85.69,19.59,19.59,0,0,0,2.26,1,8.34,8.34,0,0,1,3.1,1.68A3,3,0,0,1,68.3,102.66Z"/><path class="cls-5" d="M71.77,106.18V89h2v17.21Z"/><path class="cls-5" d="M86.53,102.66a3.24,3.24,0,0,1-1.34,2.78,6.33,6.33,0,0,1-3.77,1,8.18,8.18,0,0,1-4-.81v-1.82a9.86,9.86,0,0,0,2,.75,8.39,8.39,0,0,0,2.06.27,4.7,4.7,0,0,0,2.35-.49,1.68,1.68,0,0,0,.17-2.78,10.06,10.06,0,0,0-2.55-1.27,14.41,14.41,0,0,1-2.56-1.17A3.5,3.5,0,0,1,77.75,98a3.14,3.14,0,0,1,.91-4A6.05,6.05,0,0,1,82.18,93a10.26,10.26,0,0,1,4.08.85l-.7,1.59a9.37,9.37,0,0,0-3.52-.8,4,4,0,0,0-2.09.43,1.37,1.37,0,0,0-.71,1.21,1.44,1.44,0,0,0,.27.88,2.59,2.59,0,0,0,.85.69,19.59,19.59,0,0,0,2.26,1,8.34,8.34,0,0,1,3.1,1.68A3,3,0,0,1,86.53,102.66Z"/><path class="cls-5" d="M95.3,106.18h-2V90.75H87.85V89h12.91v1.78H95.3Z"/><path class="cls-5" d="M111.88,106.18V97.83a3.4,3.4,0,0,0-.71-2.35,2.92,2.92,0,0,0-2.25-.78,3.7,3.7,0,0,0-3,1.11,5.65,5.65,0,0,0-.93,3.63v6.74h-2V87.86h2v5.55a11,11,0,0,1-.1,1.66H105a4,4,0,0,1,1.64-1.47,5.3,5.3,0,0,1,2.43-.53,5,5,0,0,1,3.56,1.12,4.77,4.77,0,0,1,1.18,3.57v8.42Z"/><path class="cls-5" d="M123.31,106.42a5.94,5.94,0,0,1-4.52-1.74,6.78,6.78,0,0,1-1.65-4.84,7.5,7.5,0,0,1,1.53-5A5.1,5.1,0,0,1,122.8,93a4.85,4.85,0,0,1,3.84,1.6,6.11,6.11,0,0,1,1.41,4.21v1.23h-8.89a5.08,5.08,0,0,0,1.15,3.45,4,4,0,0,0,3.07,1.18,10.41,10.41,0,0,0,4.12-.87v1.74a10.44,10.44,0,0,1-2,.65A11.81,11.81,0,0,1,123.31,106.42Zm-.53-11.74a3.2,3.2,0,0,0-2.48,1,4.66,4.66,0,0,0-1.09,2.8H126a4.3,4.3,0,0,0-.83-2.83A2.91,2.91,0,0,0,122.78,94.68Z"/><path class="cls-5" d="M133.68,99v7.16h-2V89h4.72a7.43,7.43,0,0,1,4.68,1.21,4.41,4.41,0,0,1,1.52,3.65,4.58,4.58,0,0,1-3.47,4.62l4.68,7.73h-2.37L137.27,99Zm0-1.72h2.75a4.73,4.73,0,0,0,3.1-.84,3.12,3.12,0,0,0,1-2.52,2.87,2.87,0,0,0-1-2.46,5.41,5.41,0,0,0-3.24-.76h-2.6Z"/><path class="cls-5" d="M151.75,106.42a5.94,5.94,0,0,1-4.52-1.74,6.78,6.78,0,0,1-1.65-4.84,7.5,7.5,0,0,1,1.53-5A5.1,5.1,0,0,1,151.24,93a4.85,4.85,0,0,1,3.84,1.6,6.11,6.11,0,0,1,1.41,4.21v1.23H147.6a5.08,5.08,0,0,0,1.15,3.45,4,4,0,0,0,3.07,1.18,10.41,10.41,0,0,0,4.12-.87v1.74a10.44,10.44,0,0,1-2,.65A11.81,11.81,0,0,1,151.75,106.42Zm-.53-11.74a3.2,3.2,0,0,0-2.48,1,4.66,4.66,0,0,0-1.09,2.8h6.75a4.3,4.3,0,0,0-.83-2.83A2.91,2.91,0,0,0,151.22,94.68Z"/><path class="cls-5" d="M167.76,106.18l-.39-1.83h-.09a5.5,5.5,0,0,1-1.93,1.64,5.81,5.81,0,0,1-2.39.43,4.3,4.3,0,0,1-3-1,3.6,3.6,0,0,1-1.09-2.81q0-3.91,6.25-4.1l2.19-.07v-.8a3.32,3.32,0,0,0-.65-2.25,2.7,2.7,0,0,0-2.09-.72,8.5,8.5,0,0,0-3.65,1l-.6-1.5a9.46,9.46,0,0,1,2.09-.81,8.86,8.86,0,0,1,2.28-.29,4.94,4.94,0,0,1,3.42,1,4.29,4.29,0,0,1,1.11,3.29v8.8Zm-4.41-1.37a4,4,0,0,0,2.86-1,3.71,3.71,0,0,0,1-2.81V99.84l-2,.08a7.17,7.17,0,0,0-3.36.72,2.19,2.19,0,0,0-1,2,2,2,0,0,0,.64,1.61A2.67,2.67,0,0,0,163.35,104.81Z"/><path class="cls-5" d="M175.19,106.18h-1.95V87.86h1.95Z"/><path class="cls-5" d="M189.35,101.6a4.23,4.23,0,0,1-1.65,3.55,7.14,7.14,0,0,1-4.48,1.27,11.15,11.15,0,0,1-4.71-.79V103.7a13,13,0,0,0,2.31.71,12.32,12.32,0,0,0,2.47.25,5.06,5.06,0,0,0,3-.75,2.52,2.52,0,0,0,1-2.12,2.68,2.68,0,0,0-.36-1.46,3.26,3.26,0,0,0-1.2-1.06,16,16,0,0,0-2.56-1.09,8.25,8.25,0,0,1-3.43-2,4.49,4.49,0,0,1-1-3.07,3.83,3.83,0,0,1,1.49-3.17,6.2,6.2,0,0,1,4-1.18,11.63,11.63,0,0,1,4.72.94l-.62,1.74a10.81,10.81,0,0,0-4.15-.89,4,4,0,0,0-2.48.68,2.26,2.26,0,0,0-.9,1.9,2.87,2.87,0,0,0,.33,1.46,2.94,2.94,0,0,0,1.12,1,14,14,0,0,0,2.39,1.06,9.41,9.41,0,0,1,3.73,2.07A4.08,4.08,0,0,1,189.35,101.6Z"/><path class="cls-5" d="M198.58,106.42a5.56,5.56,0,0,1-2.3-.47,4.24,4.24,0,0,1-1.75-1.43h-.14a18.29,18.29,0,0,1,.14,2.15V112h-2V93.28h1.59l.27,1.76h.1a4.67,4.67,0,0,1,1.75-1.53,5.43,5.43,0,0,1,2.3-.47,4.77,4.77,0,0,1,4,1.76,9.32,9.32,0,0,1,0,9.86A4.8,4.8,0,0,1,198.58,106.42ZM198.3,94.7a3.45,3.45,0,0,0-2.86,1.1,5.58,5.58,0,0,0-.91,3.48v.44a6.42,6.42,0,0,0,.91,3.89,3.43,3.43,0,0,0,2.9,1.17,3,3,0,0,0,2.62-1.35,6.36,6.36,0,0,0,.95-3.73A6.15,6.15,0,0,0,201,96,3.11,3.11,0,0,0,198.3,94.7Z"/><path class="cls-5" d="M215.29,106.18l-.39-1.83h-.09a5.5,5.5,0,0,1-1.93,1.64,5.81,5.81,0,0,1-2.39.43,4.3,4.3,0,0,1-3-1,3.6,3.6,0,0,1-1.09-2.81q0-3.91,6.25-4.1l2.19-.07v-.8a3.32,3.32,0,0,0-.65-2.25,2.71,2.71,0,0,0-2.09-.72,8.46,8.46,0,0,0-3.65,1l-.6-1.5a9.46,9.46,0,0,1,2.09-.81,8.78,8.78,0,0,1,2.27-.29,5,5,0,0,1,3.43,1,4.29,4.29,0,0,1,1.11,3.29v8.8Zm-4.42-1.37a4,4,0,0,0,2.87-1,3.71,3.71,0,0,0,1-2.81V99.84l-1.95.08a7.1,7.1,0,0,0-3.36.72,2.19,2.19,0,0,0-1,2,2,2,0,0,0,.64,1.61A2.65,2.65,0,0,0,210.87,104.81Z"/><path class="cls-5" d="M220.6,89.78a1.27,1.27,0,0,1,.33-1,1.21,1.21,0,0,1,1.64,0,1.58,1.58,0,0,1,0,2,1.18,1.18,0,0,1-1.64,0A1.3,1.3,0,0,1,220.6,89.78Zm2.12,16.4h-1.95V93.28h1.95Z"/><path class="cls-5" d="M235.7,106.18V97.83a3.36,3.36,0,0,0-.72-2.35,2.92,2.92,0,0,0-2.25-.78,3.72,3.72,0,0,0-3,1.1,5.5,5.5,0,0,0-.94,3.61v6.77h-1.95V93.28h1.59l.31,1.76h.1a4,4,0,0,1,1.68-1.47A5.48,5.48,0,0,1,233,93a4.92,4.92,0,0,1,3.51,1.13,4.8,4.8,0,0,1,1.17,3.59v8.42Z"/></svg>