<svg id="Capa_6" data-name="Capa 6" xmlns="http://www.w3.org/2000/svg" xmlns:xlink="http://www.w3.org/1999/xlink" viewBox="0 0 328 261"><defs><style>.cls-1{opacity:0.31;}.cls-10,.cls-11,.cls-12,.cls-13,.cls-2,.cls-3,.cls-4,.cls-5,.cls-6,.cls-7,.cls-8,.cls-9{stroke:#fff;stroke-miterlimit:10;}.cls-2{fill:url(#Degradado_sin_nombre_28);}.cls-3{fill:url(#Degradado_sin_nombre_28-2);}.cls-4{fill:url(#Degradado_sin_nombre_28-3);}.cls-5{fill:url(#Degradado_sin_nombre_28-4);}.cls-6{fill:url(#Degradado_sin_nombre_28-5);}.cls-7{fill:url(#Degradado_sin_nombre_28-6);}.cls-8{fill:url(#Degradado_sin_nombre_28-7);}.cls-9{fill:url(#Degradado_sin_nombre_28-8);}.cls-10{fill:url(#Degradado_sin_nombre_28-9);}.cls-11{fill:url(#Degradado_sin_nombre_28-10);}.cls-12{fill:url(#Degradado_sin_nombre_28-11);}.cls-13{fill:url(#Degradado_sin_nombre_28-12);}.cls-14{fill:#4b4b4b;}.cls-15{fill:#a0a0a0;}.cls-16{fill:#010101;}.cls-17{fill:#020202;}.cls-18{fill:#030303;}.cls-19{fill:#020101;}.cls-20{fill:#070707;}.cls-21{fill:#030202;}.cls-22{fill:#080808;}.cls-23{fill:#090909;}.cls-24{fill:#080606;}.cls-25{fill:#110e0e;}.cls-26{fill:#0e0c0c;}.cls-27{fill:#0c0a0a;}.cls-28{fill:#131414;}.cls-29{fill:#0f0b0b;}.cls-30{fill:#0d0909;}.cls-31{fill:#090606;}</style><linearGradient id="Degradado_sin_nombre_28" x1="274.5" y1="90.1" x2="287.36" y2="90.1" gradientUnits="userSpaceOnUse"><stop offset="0.25" stop-color="#fff"/><stop offset="0.34" stop-color="#e3e3e3"/><stop offset="0.52" stop-color="#9c9c9c"/><stop offset="0.79" stop-color="#2c2c2c"/><stop offset="0.89"/></linearGradient><linearGradient id="Degradado_sin_nombre_28-2" x1="254.15" y1="95.57" x2="267.01" y2="95.57" xlink:href="#Degradado_sin_nombre_28"/><linearGradient id="Degradado_sin_nombre_28-3" x1="239.27" y1="110.49" x2="252.12" y2="110.49" xlink:href="#Degradado_sin_nombre_28"/><linearGradient id="Degradado_sin_nombre_28-4" x1="233.8" y1="130.81" x2="246.66" y2="130.81" xlink:href="#Degradado_sin_nombre_28"/><linearGradient id="Degradado_sin_nombre_28-5" x1="239.27" y1="151.19" x2="252.12" y2="151.19" xlink:href="#Degradado_sin_nombre_28"/><linearGradient id="Degradado_sin_nombre_28-6" x1="254.18" y1="166.11" x2="267.04" y2="166.11" xlink:href="#Degradado_sin_nombre_28"/><linearGradient id="Degradado_sin_nombre_28-7" x1="274.5" y1="171.51" x2="287.36" y2="171.51" xlink:href="#Degradado_sin_nombre_28"/><linearGradient id="Degradado_sin_nombre_28-8" x1="294.83" y1="166.11" x2="307.68" y2="166.11" xlink:href="#Degradado_sin_nombre_28"/><linearGradient id="Degradado_sin_nombre_28-9" x1="309.74" y1="151.19" x2="322.59" y2="151.19" xlink:href="#Degradado_sin_nombre_28"/><linearGradient id="Degradado_sin_nombre_28-10" x1="315.14" y1="130.75" x2="328" y2="130.75" xlink:href="#Degradado_sin_nombre_28"/><linearGradient id="Degradado_sin_nombre_28-11" x1="309.74" y1="110.43" x2="322.59" y2="110.43" xlink:href="#Degradado_sin_nombre_28"/><linearGradient id="Degradado_sin_nombre_28-12" x1="294.88" y1="95.57" x2="307.74" y2="95.57" xlink:href="#Degradado_sin_nombre_28"/></defs><g id="estrellas" class="cls-1"><polygon class="cls-2" points="277 96.21 280.93 93.34 284.86 96.21 283.36 91.57 287.36 88.7 282.43 88.7 280.93 84 279.42 88.7 274.5 88.7 278.49 91.57 277 96.21 277 96.21"/><polygon class="cls-3" points="256.65 101.67 260.58 98.8 264.51 101.67 263.01 97.03 267.01 94.16 262.08 94.16 260.58 89.46 259.07 94.17 254.15 94.16 258.14 97.03 256.65 101.67 256.65 101.67"/><polygon class="cls-4" points="245.69 104.38 244.19 109.09 239.27 109.08 243.26 111.95 241.76 116.59 245.69 113.72 249.62 116.59 248.13 111.95 252.12 109.08 247.2 109.08 245.69 104.38 245.69 104.38"/><polygon class="cls-5" points="240.23 134.04 244.16 136.91 242.67 132.28 246.66 129.41 241.74 129.41 240.23 124.7 238.72 129.41 233.8 129.41 237.8 132.28 236.3 136.91 240.23 134.04 240.23 134.04"/><polygon class="cls-6" points="247.2 149.79 245.69 145.09 244.19 149.79 239.27 149.79 243.26 152.66 241.76 157.3 245.69 154.42 249.62 157.3 248.13 152.66 252.12 149.79 247.2 149.79 247.2 149.79"/><polygon class="cls-7" points="262.12 164.7 260.61 160.01 259.1 164.71 254.18 164.7 258.17 167.57 256.68 172.21 260.61 169.34 264.54 172.21 263.05 167.57 267.04 164.7 262.12 164.7 262.12 164.7"/><polygon class="cls-8" points="282.44 170.11 280.93 165.41 279.43 170.11 274.5 170.11 278.49 172.98 277 177.62 280.93 174.75 284.86 177.62 283.36 172.98 287.36 170.11 282.44 170.11 282.44 170.11"/><polygon class="cls-9" points="302.76 164.7 301.25 160.01 299.74 164.71 294.83 164.7 298.81 167.57 297.32 172.21 301.25 169.34 305.18 172.21 303.69 167.57 307.68 164.7 302.76 164.7 302.76 164.7"/><polygon class="cls-10" points="317.68 149.79 316.17 145.09 314.66 149.79 309.74 149.79 313.74 152.66 312.24 157.3 316.17 154.42 320.1 157.3 318.6 152.66 322.59 149.79 317.68 149.79 317.68 149.79"/><polygon class="cls-11" points="328 129.35 323.08 129.35 321.57 124.65 320.06 129.35 315.14 129.35 319.13 132.22 317.64 136.86 321.57 133.98 325.5 136.86 324.01 132.22 328 129.35 328 129.35"/><polygon class="cls-12" points="312.24 116.53 316.17 113.66 320.1 116.53 318.6 111.89 322.6 109.03 317.68 109.03 316.17 104.33 314.66 109.03 309.74 109.03 313.74 111.89 312.24 116.53 312.24 116.53"/><polygon class="cls-13" points="301.31 89.47 299.81 94.17 294.88 94.16 298.87 97.04 297.38 101.68 301.31 98.8 305.24 101.68 303.75 97.04 307.74 94.16 302.81 94.16 301.31 89.47 301.31 89.47"/></g><g id="letras"><path class="cls-14" d="M158.91,119.75a.54.54,0,0,1,.42-.12h4.16c.18,0,.47,0,.48.23q0,11,0,22.08c0,.72,0,.7-.69.7-1.27,0-2.55,0-3.83,0a.86.86,0,0,1-.82-.43c-2.74-4.24-5.52-8.47-8.29-12.7-.12-.19-.16-.48-.47-.49-.15,4.24,0,8.54-.05,12.8,0,.9.08.81-.85.81-1.34,0-2.68,0-4,0-.32,0-.19-.45-.22-.68v-22c0-.26.05-.3.33-.3h4.43a.58.58,0,0,1,.55.32q4.33,6.78,8.65,13.58a.11.11,0,0,0,.22-.05C158.92,128.9,158.9,124.32,158.91,119.75Z"/><path class="cls-14" d="M35.3,131.27c0-3.67,0-7.34,0-11,0-.34,0-.37.39-.38h4.24c.2,0,.45,0,.43.28,0,2.79,0,5.59,0,8.39,0,.23.25.22.42.2,2.62,0,5.24,0,7.86,0,.33-.06.15-.52.2-.76,0-2.6,0-5.19,0-7.79,0-.25.06-.3.33-.3,1.46,0,2.92,0,4.37,0,.24,0,.3.07.32.33V142c0,.6.11.84-.61.78H49.43c-.19,0-.54.06-.57-.2,0-2.93,0-5.86,0-8.8,0-.81.07-.76-.76-.76h-7c-.8,0-.74-.06-.74.71v8.39c0,.66.06.66-.65.66-1.41,0-2.82,0-4.23,0a.18.18,0,0,1-.17-.18C35.28,138.79,35.32,135,35.3,131.27Z"/><path class="cls-14" d="M110.89,138.64h10.37c.6,0,.59-.06.59.57v3.16c0,.3,0,.31-.3.32H104.48c-.8,0-.71.11-.72-.7,0-.5,0-1,0-1.48a1.25,1.25,0,0,1,.26-.81c.74-1,1.46-2,2.19-3,3-4.19,6-8.35,9.12-12.46.08-.13.38-.39.1-.46-3.06,0-6.13,0-9.2,0-.4,0-.79.16-.72-.44v-3.15c0-.18-.05-.48.21-.48,5.35,0,10.7,0,16.06,0,.63,0,.61-.06.61.62s0,1.3,0,2a1,1,0,0,1-.22.68q-5.61,7.57-11.08,15.26C111,138.29,110.87,138.38,110.89,138.64Z"/><path class="cls-14" d="M184.6,131V120.36c0-.83-.07-.75.77-.75h12.82c.34,0,.38,0,.38.4,0,1.16,0,2.32,0,3.49,0,.29,0,.33-.36.34-2.75,0-5.51,0-8.26,0-.2,0-.26.08-.27.3v4.1c0,.15,0,.42.18.44,2.13,0,4.25,0,6.38,0,.58,0,.59,0,.59.58,0,1.1,0,2.2,0,3.29,0,.32,0,.35-.35.35H190c-.31,0-.35.05-.35.36v4.63c0,.29,0,.33.37.34h8.59c.36,0,.4,0,.4.37,0,1.16,0,2.33,0,3.49,0,.31,0,.35-.34.37-4.45,0-8.91,0-13.36,0-.83,0-.74,0-.74-.71Z"/><path class="cls-15" d="M8.47,142.75c-2.33,0-4.66,0-7,0a.2.2,0,0,1-.21-.21c0-7.32,0-14.63,0-22,0-.76-.06-.7.68-.7H14.57c.7,0,.67,0,.67.65,0,1.08,0,2.15,0,3.22,0,.31,0,.35-.35.35H7.09c-.44,0-.83-.14-.75.49v4c0,.27.06.32.3.33h6.12c.22,0,.64-.12.71.18,0,1.22,0,2.46,0,3.69,0,.3,0,.34-.34.34H6.69c-.3,0-.35.05-.35.36v4.63c0,.28,0,.32.3.33h8.2c.16,0,.31,0,.47,0,.33,0,.38,0,.38.39v3.43c0,.37,0,.41-.44.41Z"/><path class="cls-15" d="M24.42,143.25a16.61,16.61,0,0,1-7.48-1.92c-.29-.13-.32-.18-.21-.45.44-1.13.88-2.25,1.33-3.37.1-.24.18-.27.41-.15a21.29,21.29,0,0,0,2.41,1c1.67.65,5.57,1.48,6-1,.62-3.32-6-4.87-7.92-7.4-3.81-4-.75-10.14,4.49-10.54a15,15,0,0,1,8.11,1.35c.25.1.27.16.2.4-.35,1.14-.72,2.27-1.09,3.39-.09.29-.13.31-.43.2l-1-.38c-1.79-.63-5.41-1.72-6.59.35-.61,1.17.25,2.28,1.2,2.94,1.71,1.31,3.71,2.17,5.43,3.46,4.11,2.66,4.59,8.72-.08,11A11.3,11.3,0,0,1,24.42,143.25Z"/><path class="cls-14" d="M171.38,133.26c0-3,0-6.09,0-9.13a.21.21,0,0,0-.2-.22c-2.17,0-4.35,0-6.52,0-.25,0-.31-.06-.31-.33v-3.63c0-.21.08-.28.28-.3,6.06,0,12.13,0,18.2,0a.2.2,0,0,1,.17.18c0,1.19,0,2.37,0,3.56,0,.49,0,.5-.47.5h-3c-1,0-1.92,0-2.88,0-.35.06-.19.51-.23.76v17.18c0,.86.09.8-.78.8h-3.63c-.23,0-.65.09-.66-.25C171.37,139.35,171.39,136.3,171.38,133.26Z"/><path class="cls-14" d="M102.23,131.24c0,3.8,0,7.6,0,11.4a.21.21,0,0,1-.2.22c-1.55,0-3.09,0-4.63,0a.21.21,0,0,1-.21-.21c0-7.45,0-14.9,0-22.34,0-.71,0-.66.65-.66,1.41,0,2.82,0,4.23,0a.17.17,0,0,1,.16.18C102.25,123.64,102.21,127.44,102.23,131.24Z"/><path class="cls-16" d="M105.83,162.14c-.07,1.32,0,2.64,0,4,0,.44-.1.52-.51.52s-.43-.08-.44-.44c0-2,0-4,0-6,0-.38.94-.19,1.22-.23a.3.3,0,0,1,.28.24c.4,1.31.58,2.73,1,4,.13,0,.13-.09.15-.16.27-1.06.53-2.12.8-3.18.13-.34.08-1,.59-.91s1.16-.25,1.08.66v5.5c0,.43-.1.5-.53.49s-.43-.1-.43-.45c0-1.3,0-2.6,0-3.89-.1-.11-.05-.24-.06-.36-.22,1.21-.62,2.43-.89,3.65-.16.4-.06,1.1-.68,1.05-.24,0-.34-.07-.4-.28-.14-.49-.26-1-.39-1.48-.24-1-.49-1.92-.74-2.88A.26.26,0,0,1,105.83,162.14Z"/><path class="cls-16" d="M92.58,162.3c.9-.73,1.57-.84,2.15,0,.67-.7,2-.93,2.19.27s0,2.37,0,3.55c0,.38-.12.54-.51.51s-.44-.1-.44-.44c0-.85,0-1.7,0-2.55,0-.43,0-1.13-.62-1a.72.72,0,0,0-.6.76c0,1,0,2,0,3,0,.27-.34.26-.54.26s-.39-.1-.4-.42c0-1.07.06-2.15,0-3.21-.17-.74-1.26-.19-1.17.41,0,.92,0,1.84,0,2.75,0,.38-.12.47-.49.47s-.49-.1-.49-.47c0-.81,0-1.61,0-2.42,0-.49,0-1,0-1.47s.14-.47.5-.47S92.57,161.93,92.58,162.3Z"/><path class="cls-16" d="M256,162.58c0-.72,0-1.44,0-2.15,0-.35.1-.43.45-.44s.65,0,.63.39c.06,1.6-.12,3.23.08,4.83a.78.78,0,0,0,.8.58c.88.09,1.11-.69,1.06-1.42,0-1.25,0-2.51,0-3.76-.1-.64.34-.72.86-.58.24.11.19.44.21.66,0,1.23,0,2.46,0,3.69,0,1-.27,2.05-1.35,2.26-3.13.57-2.73-1.86-2.73-4.06Z"/><path class="cls-17" d="M278.31,163.32c0-.93,0-1.87,0-2.81,0-.47.07-.52.56-.53.76,0,1.52,0,2.28,0,.43,0,.62,0,.56.65,0,.38-.42.31-.69.32h-1.14c-.46,0-.46,0-.47.49a3.74,3.74,0,0,0,.09,1.25c.4.17,1.58-.22,1.61.38,0,.26,0,.6-.33.61s-.76,0-1.13,0c-.18,0-.24.1-.24.25,0,.49,0,1,0,1.48,0,.17.09.23.25.23.56,0,1.12,0,1.68,0a.52.52,0,0,1,.43.84c-.19.33-2.37.1-2.9.16s-.55-.08-.56-.53C278.3,165.2,278.31,164.26,278.31,163.32Z"/><path class="cls-18" d="M41.9,164.11c.06-.44-.17-2.2.19-2.34s.74-.09.74.29c0,.13.12.13.19.07,1-.95,2.23-.52,2.15,1,0,1,0,1.92,0,2.88,0,.27,0,.6-.37.6s-.56,0-.58-.28c0-.92,0-1.84,0-2.75,0-.33,0-.81-.35-.95a.84.84,0,0,0-1,1v2.21c0,.29.07.74-.32.77s-.62,0-.64-.3C41.88,165.54,41.91,164.83,41.9,164.11Z"/><path class="cls-16" d="M262,162.26c.17,0,.25-.18.39-.25a1.12,1.12,0,0,1,1.85,1.08c0,1.11,0,2.24,0,3.35-.11.32-.85.31-.9-.06,0-.89,0-1.79,0-2.68.05-.53-.09-1.27-.8-1a.78.78,0,0,0-.54.81v2.35c0,.26.1.69-.25.75s-.77,0-.71-.48v-3.82c0-.33.07-.45.25-.48C261.72,161.75,261.85,161.93,262,162.26Z"/><path class="cls-16" d="M284.77,166.2c-.88.82-2.23.79-2.24-.66v-3.28c0-.49.39-.44.72-.4s.22.45.25.68c0,1-.07,2,.05,2.94.26.75,1.36.16,1.27-.49,0-.85,0-1.7,0-2.55,0-.56.08-.64.68-.59.33,0,.28.4.28.65v3.55c0,.23,0,.56-.26.6a.73.73,0,0,1-.46,0C284.85,166.56,284.89,166.34,284.77,166.2Z"/><path class="cls-19" d="M230.57,162.32c.9-.84,2.23-.77,2.24.69,0,1.07,0,2.14,0,3.21.05.51-.82.71-.94.18a32,32,0,0,0-.08-3.4.48.48,0,0,0-.28-.28.81.81,0,0,0-1,.65c0,.81,0,1.61,0,2.42,0,.34.12.9-.39.9-.24,0-.55,0-.56-.32,0-1.38,0-2.77,0-4.15,0-.45.7-.45.86-.2A1.68,1.68,0,0,1,230.57,162.32Z"/><path class="cls-16" d="M203.05,162.34c.87-.88,2.27-.75,2.23.62,0,1.1,0,2.19,0,3.28.08.46-.51.58-.82.36s-.12-.46-.13-.69v-2.28c0-.33,0-.8-.37-.92a.9.9,0,0,0-1,.62c0,1,0,1.92,0,2.88,0,.3,0,.49-.47.48s-.49-.08-.49-.46c0-1.37,0-2.73,0-4.09a.32.32,0,0,1,.26-.27C202.72,161.8,202.85,161.87,203.05,162.34Z"/><path class="cls-16" d="M198.49,162.33c.62-.68,2-.88,2.17.26s0,2.37.05,3.55c0,.21,0,.5-.26.53s-.71,0-.68-.38c0-1,0-2,0-2.95,0-.64-.48-.84-1-.46a.67.67,0,0,0-.33.61c0,.78,0,1.56,0,2.34,0,.45.12.94-.56.86-.29,0-.4-.11-.4-.42v-4c0-.3.11-.38.42-.39S198.25,161.86,198.49,162.33Z"/><path class="cls-19" d="M272.41,162.3c.95-.89,2.32-.75,2.24.76,0,1,0,2.06,0,3.08a.48.48,0,0,1-.94.2c0-1.07,0-2.14,0-3.21-.13-.89-1.42-.35-1.32.38-.07.48.17,3-.16,3.09s-.87,0-.8-.5c0-1.23,0-2.45,0-3.68,0-.56.15-.61.64-.58C272.3,161.86,272.31,162.09,272.41,162.3Z"/><path class="cls-16" d="M143.38,162.09c.93-.83,2.18-.72,2.2.73,0,1.08,0,2.15,0,3.22,0,.18-.05.4-.25.42s-.7.09-.69-.28c-.06-1.09.07-2.2-.07-3.28-.21-.81-1.38-.26-1.28.46s0,1.52,0,2.28c0,.33.1.85-.38.84s-.62-.15-.58-.63v-3.56c0-.18,0-.43.13-.55s.72-.13.79.21C143.27,162,143.29,162.08,143.38,162.09Z"/><path class="cls-17" d="M182.85,164.07c0-.65,0-1.29,0-1.94,0-.3.09-.42.3-.45.36-.05.5,0,.62.31,0,.1.08.14.18.08.77-.79,2.12-.68,2.12.61,0,1.13,0,2.27,0,3.41,0,.25-.07.39-.34.39s-.58,0-.59-.36c0-.84,0-1.69,0-2.54,0-.55-.08-1.35-.81-1a.8.8,0,0,0-.54.83c0,.87,0,1.74,0,2.61,0,.42-.11.5-.54.48s-.41-.11-.41-.41c0-.67,0-1.34,0-2Z"/><path class="cls-17" d="M212.45,165c.16,0,.17-.14.2-.25.17-.79.35-1.57.53-2.35a.63.63,0,0,1,.94-.5c.2.07.12.31.08.47-.35,1.25-.68,2.49-1,3.74-.15.54-.28.61-.81.58a.48.48,0,0,1-.48-.39c-.13-.47-.25-.94-.37-1.42-.22-.84-.45-1.68-.67-2.52-.1-.28,0-.51.3-.5.54,0,.6,0,.72.55C212.06,163.28,212.25,164.14,212.45,165Z"/><path class="cls-17" d="M155.93,166.57a1.38,1.38,0,0,1-1.41-.83.31.31,0,0,1,.06-.42.5.5,0,0,1,.61,0,.89.89,0,0,1,.16.22c.34.54,1.43.33,1.21-.39-.14-.47-.65-.59-1-.83-1.88-.85-1.12-3.16.93-2.64.39.07,1.25.92.59,1.16a.47.47,0,0,1-.59-.18c-.7-.82-1.78.29-.48.87.58.31,1.28.57,1.46,1.28A1.38,1.38,0,0,1,155.93,166.57Z"/><path class="cls-17" d="M30.05,166.65c-.76,0-1.29-.23-1.54-.89-.08-.21,0-.34.17-.42s.4-.2.62.16c.83,1.08,2.06-.27.64-.94-.29-.17-.59-.32-.87-.5a1.34,1.34,0,0,1,0-2.18,1.57,1.57,0,0,1,2.18.43c.14.24.15.4,0,.48s-.48.24-.66,0a1.79,1.79,0,0,0-.23-.25c-.86-.55-1.4.57-.41,1a9.33,9.33,0,0,1,.88.48,1.41,1.41,0,0,1-.2,2.54A4.86,4.86,0,0,1,30.05,166.65Z"/><path class="cls-17" d="M172.05,164.13c-.09-1.51.67-2.93,2.32-2.48a1.27,1.27,0,0,1,.93,1c.08.25,0,.4-.11.47-.3.13-.52.11-.67-.09-.22-.48-.66-.86-1.13-.39a3.32,3.32,0,0,0-.24,2.59.68.68,0,0,0,1.34.05c.14-.34.28-.35.65-.27a.31.31,0,0,1,.21.42,1.64,1.64,0,0,1-3.14.06A4.19,4.19,0,0,1,172.05,164.13Z"/><path class="cls-17" d="M218.56,164.31c-.12-1.53.81-3,2.42-2.43.45.12,1.09.86.83,1.33a.53.53,0,0,1-.77,0c-.36-.87-1.21-.72-1.39.17s-.15,3.44,1.22,2.35c.08-.14.14-.28.22-.41.19-.3.91-.17.81.25a1.68,1.68,0,0,1-2.4,1.06A2.39,2.39,0,0,1,218.56,164.31Z"/><path class="cls-16" d="M148,164.54c.18-.76.35-1.52.53-2.28.05-.25.11-.59.43-.58s.74-.06.65.32c-.33,1.29-.71,2.58-1.06,3.87-.11.42-.23.67-.71.62s-.51-.08-.61-.47c-.36-1.34-.71-2.68-1.06-4-.08-.24.16-.34.37-.33.49,0,.57,0,.68.52.19.79.36,1.57.54,2.36C147.84,164.65,147.92,164.66,148,164.54Z"/><path class="cls-16" d="M118.82,164.19c-.18-2.95,2.88-3.22,3.29-1.29a.28.28,0,0,1-.24.34c-.36.08-.45,0-.66-.27a.62.62,0,0,0-1.07-.22c-.62.7-.52,4.13,1,2.87.16-.19.19-.57.5-.57s.61.22.45.64a1.65,1.65,0,0,1-3,0A4.47,4.47,0,0,1,118.82,164.19Z"/><path class="cls-20" d="M195.25,163.32c0-1,0-2,0-3a.32.32,0,0,1,.14-.21c.28-.14.8-.17.92.19.08,1.91,0,3.83,0,5.75,0,.6-.11.69-.71.65-.26,0-.36-.11-.39-.36C195.23,165.33,195.26,164.32,195.25,163.32Z"/><path class="cls-16" d="M159.63,166.56c-.94,0-1.18-.52-1.13-1.37s0-1.57,0-2.35c0-.3,0-.3-.32-.38s-.48-.78,0-.79c.32-.06.32-.07.32-.37s0-.54,0-.81.16-.39.48-.39c.57-.07.46.48.47.88-.15,1.31.76.23.89,1,.1,1-1.06,0-.89,1v1.94c0,.28,0,.66.34.7.17,0,.39-.06.49.13a.58.58,0,0,1,0,.57C160.15,166.55,159.83,166.52,159.63,166.56Z"/><path class="cls-17" d="M14.3,161.73c.33.16.87-.1.82.45,0,.34,0,.38-.37.41s-.53,0-.49.27c0,.81,0,1.61,0,2.41,0,.23.07.49.33.5s.57,0,.53.46-.36.42-.67.44c-.8,0-1.11-.25-1.14-1s0-1.78,0-2.67c0-.29,0-.29-.28-.36s-.41-.33-.33-.62c0-.13.15-.14.26-.17.35-.1.35-.1.36-.42s0-.58,0-.87.34-.29.57-.28C14.55,160.25,14.1,161.33,14.3,161.73Z"/><path class="cls-21" d="M141.2,163.21v2.62c0,.24.05.63-.28.65s-.79.09-.8-.35c0-1.95,0-3.9,0-5.84,0-.38.09-.45.5-.45.24,0,.58,0,.58.28C141.22,161.15,141.19,162.18,141.2,163.21Z"/><path class="cls-22" d="M50.89,163.21V160.6c0-.43,0-.8.57-.73.26,0,.37.11.4.35,0,1.87,0,3.75,0,5.62,0,.6-.14.81-.71.71-.34-.05-.27-.47-.28-.73Z"/><path class="cls-18" d="M65,163.24v2.61c0,.23.07.62-.24.69s-.69.09-.71-.26c0-2,0-3.93,0-5.89,0-.49.21-.61.75-.47a.26.26,0,0,1,.2.24C65,161.19,64.94,162.21,65,163.24Z"/><path class="cls-17" d="M21.3,163.27v2.62c0,.23.09.62-.22.69-.49.08-.79,0-.75-.51,0-1.86,0-3.71,0-5.56,0-.16,0-.39.14-.49a.81.81,0,0,1,.71,0,.28.28,0,0,1,.09.17C21.33,161.22,21.29,162.25,21.3,163.27Z"/><path class="cls-18" d="M247.58,163.34c0,.89,0,1.79,0,2.68,0,.56-.15.62-.71.57-.33,0-.25-.42-.26-.66,0-1.9,0-3.79,0-5.69a.29.29,0,0,1,.31-.28c.66-.07.66.21.64.77Z"/><path class="cls-17" d="M85.29,162.44c.3-.32.48-.63.91-.72.23,0,.33,0,.34.28s.08.59-.32.68a1.22,1.22,0,0,0-1,1.19c0,.67,0,1.34,0,2,0,.22.08.55-.15.68s-.65.13-.78-.14c-.08-1.35,0-2.72,0-4.08,0-.16,0-.38.15-.48a.69.69,0,0,1,.64,0C85.29,162,85.23,162.2,85.29,162.44Z"/><path class="cls-17" d="M287.81,162.51a1.71,1.71,0,0,1,.87-.75c.47-.15.36.41.36.7s-.5.25-.69.43a1.1,1.1,0,0,0-.57,1c0,.69,0,1.38,0,2.08,0,.23.07.63-.25.68s-.68.08-.7-.28c0-1.4,0-2.81,0-4.22,0-.28.27-.31.5-.3C287.75,161.81,287.72,162.13,287.81,162.51Z"/><path class="cls-17" d="M116.73,162.44c.3-.33.44-.56.83-.69s.42,0,.41.3c0,.6,0,.54-.55.72a1.16,1.16,0,0,0-.72,1.1c0,.74,0,1.48,0,2.22,0,.45-.1.54-.56.52-.15,0-.35,0-.37-.22-.06-1.36,0-2.72,0-4.09,0-.43.14-.55.56-.5S116.69,162.12,116.73,162.44Z"/><path class="cls-17" d="M11,162.39c.26-.29.51-.66.94-.67s.22.47.24.7-.44.25-.63.39a1.14,1.14,0,0,0-.63,1c0,.69,0,1.39,0,2.08s-.11.77-.73.67c-.21,0-.23-.26-.23-.43v-3.89c0-.14,0-.33.15-.41s.64-.12.76.17C10.93,162.14,10.85,162.29,11,162.39Z"/><path class="cls-17" d="M73.45,162.43c.3-.33.51-.68,1-.71.17,0,.25,0,.26.22s.12.68-.25.73a1.18,1.18,0,0,0-.74.43,1.05,1.05,0,0,0-.28.73c0,.69,0,1.38,0,2.08,0,.23.07.63-.25.68s-.68.09-.71-.27c0-1.29,0-2.59,0-3.89,0-.42,0-.66.52-.63S73.39,162.1,73.45,162.43Z"/><path class="cls-23" d="M266.25,164.28c0,.61,0,1.21,0,1.81,0,.44-.11.63-.67.56a.32.32,0,0,1-.31-.3c0-1.39,0-2.78,0-4.16,0-.37.37-.37.67-.35s.32.43.32.7Z"/><path class="cls-18" d="M224,164.28c0,.64,0,1.29,0,1.94,0,.39-.1.47-.48.47s-.47-.09-.47-.47c0-1.3,0-2.59,0-3.89,0-.49.3-.48.68-.46s.26.48.28.73v1.68Z"/><path class="cls-18" d="M162,164.12c0,.6,0,1.2,0,1.8s-.05.61-.65.56a.31.31,0,0,1-.31-.29c0-1.32,0-2.63,0-3.95,0-.24,0-.54.31-.56s.66,0,.64.36c0,.69,0,1.38,0,2.08Z"/><path class="cls-18" d="M177.17,164.08c0,.63,0,1.25,0,1.88s-.41.64-.81.47c-.16-.09-.14-.32-.15-.48v-3.74c0-.48.1-.56.54-.54s.41.11.42.4C177.17,162.74,177.16,163.41,177.17,164.08Z"/><path class="cls-24" d="M43,160.11c.36,0,.67.22,1,.3s.41-.29.68-.33.33.06.3.24c-.13.89-1,.91-1.55.56s-.61.39-1.12.24S42.49,160,43,160.11Z"/><path class="cls-25" d="M226.83,161.33c-.55,0,.17-.85.25-1.08s1.09-.36,1,0C227.8,160.59,227.35,161.37,226.83,161.33Z"/><path class="cls-26" d="M269.72,160c.22,0,.45.05.28.32-.37.36-.73,1.25-1.36.92-.18-.17.24-.56.28-.77A.68.68,0,0,1,269.72,160Z"/><path class="cls-27" d="M180.93,159.83c.12,0,.45,0,.34.21-.37.37-.72,1.24-1.32,1.05-.37-.07.29-.94.4-1.12S180.71,159.84,180.93,159.83Z"/><path class="cls-28" d="M266.27,160.56c.12.59-1,.68-1,.12s.09-.79.68-.73C266.27,160,266.29,160.29,266.27,160.56Z"/><path class="cls-29" d="M177.18,160.38c0,.07,0,.3-.1.37a.81.81,0,0,1-.81,0c-.1-.12-.08-.3-.1-.45,0-.45.11-.56.54-.55S177.18,159.88,177.18,160.38Z"/><path class="cls-30" d="M162,160.44c.05.44-.45.47-.78.38s-.22-.31-.22-.49c0-.47.13-.59.59-.56S162,159.9,162,160.44Z"/><path class="cls-31" d="M224,160.41c0,.34,0,.64-.37.64-.18,0-.42,0-.55-.13s-.15-.88.17-.92S224,159.9,224,160.41Z"/><path class="cls-15" d="M257.11,127.75c-.05-16.36-15.91-29.4-29.87-17-8.74,9.2-9,29.75-.47,39.15h0C243.17,165.17,259.94,145.81,257.11,127.75ZM246.3,135c-5.26,27.92-21.18,2.59-12.93-16.13h0a7.16,7.16,0,0,1,4.14-4.38C246.25,112.57,247.07,129.26,246.3,135Z"/><path class="cls-15" d="M310.45,127.75c-.05-16.36-15.91-29.4-29.87-17-8.74,9.2-9,29.75-.46,39.15h0C296.51,165.17,313.28,145.81,310.45,127.75ZM299.64,135c-5.26,27.92-21.18,2.59-12.93-16.13h0a7.15,7.15,0,0,1,4.15-4.38C299.59,112.57,300.41,129.26,299.64,135Z"/><path class="cls-14" d="M212.26,128.71c4.36-4.39,8.16-13.12-1.63-14-13.22.82-8.13,9.36-15.48-2.8-.12-.21.08-.51.23-.71,12.52-11.48,41.87-3.5,28.2,19h0c-1.8,2.72-12.19,13-15.13,15.59-.26.17-.19.33,0,.44,3.77,0,16.53-.17,18.61-.18a.4.4,0,0,1,.3.36c0,2.17,0,5.5,0,7.67,0,.33.06.69-.42.65H195c-.74,0-.75,0-.74-.73,0-1.63,0-3.94,0-5.57a1,1,0,0,1,.4-.86A130.77,130.77,0,0,0,212.26,128.71Z"/><path class="cls-14" d="M265.71,128.71c4.36-4.39,8.16-13.12-1.62-14-13.23.82-8.14,9.36-15.48-2.8-.13-.21.07-.51.23-.71,12.52-11.48,41.86-3.5,28.2,19h0c-1.8,2.72-12.19,13-15.14,15.59-.26.17-.18.33.05.44,3.76,0,16.52-.17,18.6-.18.15,0,.29.2.31.36,0,2.17,0,5.5,0,7.67,0,.33.06.69-.41.65h-32c-.74,0-.74,0-.74-.73,0-1.63,0-3.94,0-5.57a1.06,1.06,0,0,1,.4-.86A130.77,130.77,0,0,0,265.71,128.71Z"/><path class="cls-14" d="M142,127.08c-1.6-9.59-14.5-11.5-18.56-2.63-3.87,8.27.28,20.7,11,18.43C141.4,141.51,143.35,133.13,142,127.08Zm-5.13,7.76c-.82,3.81-5.72,5.55-8.24,2.24-2.17-3-2.19-9-.14-12.08a4.42,4.42,0,0,1,4.13-1.91c2.6.09,4.15,2.58,4.54,4.92A14,14,0,0,1,136.83,134.84Z"/><path class="cls-14" d="M75.68,127.84c-1.42-11.29-16.51-12.42-19.44-1.42-2.55,8.29,2,18.71,12,16.41C74.78,141.35,76.72,133.76,75.68,127.84ZM71,131c-.11,2.55-.42,4.81-2.16,6.63a4.47,4.47,0,0,1-6.68-.53c-2.7-3.84-2.49-14.19,3.86-14C69.87,123.12,71.08,127.86,71,131Z"/><path class="cls-14" d="M89.93,132c.16-.25.47-.23.6-.46,4-2.14,3.92-8.72-.14-10.74-3.61-1.87-12-1.2-12-1.2s.07,15,.07,22.5c0,.37-.06.63.46.58,1.45,0,2.91,0,4.36,0,.13,0,.21-.08.22-.21,0-3,0-6,0-9.06a.22.22,0,0,1,.25-.25,4.51,4.51,0,0,0,1.27,0c.1,0,.22,0,.27.16q2.13,4.54,4.28,9.09c.43.91.15.75,1.24.68,1.57-.25,3-.37,4.63-.71C93.59,138.86,91.74,135.43,89.93,132Zm-1.53-4.9c-.43,2.06-2.67,2.69-4.53,2.51-.37,0-.4,0-.4-.44,0-1.83,0-3.65,0-5.48,0-.31,0-.36.34-.36C86.41,123.08,89,124,88.4,127.09Z"/><path class="cls-16" d="M166,165.76c-.57-.2-1.21-.07-1.77-.3-.3-.16,0-.55.25-.47,1.46.29,2.25-.87,1.94-2.22a.25.25,0,0,1,.21-.34c.35,0,.3-.38.29-.64-.07-.57-.66,0-.92.16a1.82,1.82,0,0,0-1.4-.35c-1.46.14-1.62,2.15-.84,3.09-.63.84-.65,1.07-.08,1.66-1.94,1.59,1.31,2.26,2.48,1.59A1.13,1.13,0,0,0,166,165.76Zm-1.76-2.84a.63.63,0,0,1,.59-.61c.73-.05.85.92.68,1.49a.64.64,0,0,1-1.27-.08A3.57,3.57,0,0,1,164.27,162.92Zm1.49,4.44a1.47,1.47,0,0,1-.81.15c-.49.07-1.3-.29-.8-.83S166.73,166.57,165.76,167.36Z"/><path class="cls-16" d="M82.89,165.92a5.81,5.81,0,0,0-.85-.16c-.3-.1-1.17,0-1.15-.41.09-.67,2.06.53,2.35-1.54a4.22,4.22,0,0,0,0-.87c0-.21,0-.35.24-.39s.32-.73.16-.84c-.41-.22-.62.54-1,.27a1.59,1.59,0,0,0-2.45.8,2.16,2.16,0,0,0,.25,1.86c.34.57-1,.74,0,1.85a1,1,0,0,0-.55,1c.24,1.05,2,.94,2.77.73A1.16,1.16,0,0,0,82.89,165.92Zm-1.8-3.07a.63.63,0,0,1,1.18,0,2.24,2.24,0,0,1,0,1.06.64.64,0,0,1-1.22.13A1.8,1.8,0,0,1,81.09,162.85Zm1.37,4.67a1.49,1.49,0,0,1-.72.13,1.6,1.6,0,0,1-.71-.13c-.59-.33-.08-.94.43-1s1.24,0,1.29.55A.43.43,0,0,1,82.46,167.52Z"/><path class="cls-16" d="M4.92,161.58C4.81,159.73,2.79,160,1.44,160c-.54-.05-.41.5-.43.86v4.49c.06.4-.21,1.34.4,1.29s.71,0,.7-.65,0-1.16,0-1.74c0-.16.08-.24.25-.25C4,164,5.13,163.36,4.92,161.58Zm-1.28,1c-.22.38-.7.35-1.09.37s-.44,0-.44-.45,0-.62,0-.93c0-.79-.06-.68.75-.68S4.1,162,3.64,162.62Z"/><path class="cls-16" d="M71.69,161.62c-.09-1.89-2.21-1.69-3.59-1.66-.38,0-.31.42-.32.69v2.62h0c0,1,0,2,0,2.95,0,.28.1.38.35.39.73,0,.74-.06.73-.68s0-1.12,0-1.68c0-.22,0-.27.28-.27C70.72,164.06,71.9,163.33,71.69,161.62Zm-1.37,1.1c-.22.28-.62.25-.94.28-.5,0-.51,0-.51-.51v-1.07c0-.5,0-.5.53-.49s.94,0,1.11.54A1.19,1.19,0,0,1,70.32,162.72Z"/><path class="cls-16" d="M132.6,166c0-1.92,0-3.84,0-5.76a.24.24,0,0,0-.21-.23c-.61-.06-.78,0-.73.68v1.42c-.17.05-.22,0-.3-.08a1.27,1.27,0,0,0-2,.74c-.64,1.45-.16,5.08,2.08,3.64.1-.07.17-.21.33-.17.16.34.29.48.65.38S132.57,166.19,132.6,166Zm-1-.81a.72.72,0,0,1-1.29.34,3.24,3.24,0,0,1-.19-2,1.86,1.86,0,0,1,.15-.51.7.7,0,0,1,1.33.18C131.63,163.86,131.64,164.5,131.63,165.15Z"/><path class="cls-16" d="M239.83,165.93c0-1.9,0-3.8,0-5.7,0-.28-.32-.28-.53-.27s-.41.09-.41.39c0,.49,0,1,0,1.47,0,.1,0,.23-.12.29-2.07-1.4-2.69,1.42-2.39,3,.08,1.46,1.42,2.21,2.53,1.09.22.3.36.56.74.42S239.8,166.15,239.83,165.93Zm-1-.8a.69.69,0,0,1-.58.64c-1.15.2-1-1.62-.9-2.34.11-1,1.41-1.06,1.48-.18C238.87,163.88,238.88,164.51,238.87,165.13Z"/><path class="cls-16" d="M58.38,165.82c0-1.87,0-3.75,0-5.63a.33.33,0,0,0-.29-.31c-.53-.08-.7.09-.66.62s0,1,0,1.52c-.14,0-.2-.06-.32-.11a1.35,1.35,0,0,0-2.09,1c-.26,1.23-.41,3.9,1.45,3.75a1.49,1.49,0,0,0,.83-.41c.14-.13.16-.12.27.08s.27.3.54.25S58.4,166.1,58.38,165.82Zm-1-.78a.74.74,0,0,1-.6.69c-1.22.18-1.1-2.18-.68-2.86a.7.7,0,0,1,1.28.37Q57.44,164.14,57.42,165Z"/><path class="cls-16" d="M36.2,162.77a1.31,1.31,0,0,0-2.34-.62c-.23-.42-.31-.46-.7-.42-.21,0-.3.13-.32.36,0,1.78,0,3.57,0,5.36,0,.27,0,.68.3.71s.69,0,.66-.41,0-.77,0-1.14c0-.12-.06-.26.07-.35C36.27,167.69,36.65,164.43,36.2,162.77Zm-1,2.31a.74.74,0,0,1-.93.62.65.65,0,0,1-.52-.62v-.94h0c0-.6-.17-1.37.61-1.57C35.55,162.4,35.43,164.36,35.24,165.08Z"/><path class="cls-16" d="M297.76,162.51a1.25,1.25,0,0,0-1.9-.53c-.12.09-.2.25-.38.25s0-.28-.18-.34c-.47-.2-.78,0-.79.5,0,1.85,0,3.71,0,5.56,0,.34.43.37.69.31a.33.33,0,0,0,.26-.34v-1.55c.2,0,.27.08.37.13C298.17,167.63,298.3,163.86,297.76,162.51Zm-.82,2.6c-.08.44-.44.85-.93.69a.61.61,0,0,1-.54-.64c0-.6,0-1.21,0-1.81a.76.76,0,0,1,.62-.68c.48-.13.81.33.87.78A3.58,3.58,0,0,1,296.94,165.11Z"/><path class="cls-16" d="M8.56,162.9a1.65,1.65,0,0,0-3.15-.09,4.49,4.49,0,0,0,0,2.83,1.67,1.67,0,0,0,3.17-.16A4.62,4.62,0,0,0,8.56,162.9Zm-1,2.6a.54.54,0,0,1-.56.4c-.79,0-.76-1.08-.79-1.61A4,4,0,0,1,6.36,163a.62.62,0,0,1,1.17-.1A4.19,4.19,0,0,1,7.55,165.5Z"/><path class="cls-17" d="M19.37,163.38c0-.63-.13-1.4-.84-1.59a1.69,1.69,0,0,0-2.18.9.26.26,0,0,0,.15.33c.28.12.44.09.68-.2.35-.46,1.18-.48,1.24.24.13.42-.36.5-.7.6-2.79.66-1.8,4.36.66,2.55.25.39.27.41.67.4s.35-.06.35-.35C19.39,165.3,19.37,164.34,19.37,163.38Zm-1,1.92c0,.26-.31.5-.65.58-.89.18-.85-1.22-.15-1.46a1.9,1.9,0,0,1,.76-.25A3.59,3.59,0,0,1,18.36,165.3Z"/><path class="cls-16" d="M78.91,163a1.66,1.66,0,0,0-3.2-.11,5,5,0,0,0,0,2.77,1.68,1.68,0,0,0,3.2-.15A4.86,4.86,0,0,0,78.91,163ZM78,165.13c0,.66-.82,1.13-1.23.47a4,4,0,0,1-.08-2.62.64.64,0,0,1,.59-.47c.44,0,.69.46.73.88A7.79,7.79,0,0,1,78,165.13Z"/><path class="cls-16" d="M181.57,162.57a1.67,1.67,0,0,0-3,0c-.41,1.15-.51,3.09.67,3.81a1.67,1.67,0,0,0,2.44-1A5.07,5.07,0,0,0,181.57,162.57Zm-.91,2.71a.62.62,0,0,1-.56.5c-.52.05-.74-.47-.78-.9a4.3,4.3,0,0,1,.18-2.17.57.57,0,0,1,.55-.32c.45,0,.58.41.67.77A4.6,4.6,0,0,1,180.66,165.28Z"/><path class="cls-16" d="M293.19,163.22a1.67,1.67,0,0,0-3.26-.3,4.89,4.89,0,0,0-.18,1.32c0,.81.08,1.8.85,2.27a1.69,1.69,0,0,0,2.53-1A4.67,4.67,0,0,0,293.19,163.22Zm-1,2.23a.64.64,0,0,1-.44.47c-1.26.27-1-2.15-.81-2.87a.64.64,0,0,1,1.25,0,5.25,5.25,0,0,1,.16,1.19A5.33,5.33,0,0,1,292.15,165.45Z"/><path class="cls-19" d="M306.59,163.31c0-1.22-.79-1.77-1.93-1.53a1.42,1.42,0,0,0-1,.74c-.06.13-.18.27-.06.43s.31.16.49.16.22-.12.3-.23a.67.67,0,0,1,1.22.53c-.17.2-.49.21-.72.31a3.76,3.76,0,0,0-.91.42c-1.68,1.28-.24,3.68,1.63,2.07a.58.58,0,0,0,.7.47c.23,0,.3-.1.3-.35Zm-1,1.81c.06.65-1,1.19-1.31.49a.93.93,0,0,1,.57-1.2C305.86,163.94,305.58,164.41,305.62,165.12Z"/><path class="cls-16" d="M49.64,163a1.66,1.66,0,0,0-3.22-.15,6,6,0,0,0-.12,2.25,1.77,1.77,0,0,0,1,1.44,1.67,1.67,0,0,0,2.4-1.16A5,5,0,0,0,49.64,163Zm-1,2.23c-.1.71-1,.95-1.26.27s-.45-2.93.57-3c.33,0,.59.26.69.7A5.65,5.65,0,0,1,48.69,165.18Z"/><path class="cls-16" d="M228.37,162.8a1.66,1.66,0,0,0-3.07,0c-.5,1.39-.45,4,1.56,4a1.49,1.49,0,0,0,1.53-1.06A4.86,4.86,0,0,0,228.37,162.8Zm-.81,2.24c0,.69-.73,1.35-1.25.65a4.09,4.09,0,0,1-.2-2.17c.06-.41.22-1,.74-1,.79.08.71,1.14.72,1.73h0C227.58,164.55,227.58,164.79,227.56,165Z"/><path class="cls-16" d="M270.58,164.32c.06-1.19-.36-2.67-1.79-2.58-2,0-2,2.53-1.55,3.91a1.68,1.68,0,0,0,3.2-.17A3.61,3.61,0,0,0,270.58,164.32Zm-1.13,1.09a.59.59,0,0,1-.47.5c-1.24.29-1.07-2.5-.64-3.12a.58.58,0,0,1,1,0,2.13,2.13,0,0,1,.27,1A4.46,4.46,0,0,1,269.45,165.41Z"/><path class="cls-16" d="M126.1,162.84a1.66,1.66,0,0,0-3.16,0c-.42,1.39-.36,3.91,1.62,3.84a1.52,1.52,0,0,0,1.55-1.14A4.93,4.93,0,0,0,126.1,162.84Zm-1,2.59a.62.62,0,0,1-.45.46c-1.23.27-1-2.33-.72-3a.61.61,0,0,1,1.14.06A4.26,4.26,0,0,1,125.14,165.43Z"/><path class="cls-16" d="M251.63,163.21c.07-1.15-.8-1.65-1.86-1.47a1.34,1.34,0,0,0-1.05.74c-.07.13-.17.27-.07.43s.31.17.48.17.27-.22.39-.34c.48-.48,1.27-.22,1.17.5,0,.32-.41.28-.62.39s-.66.26-1,.43c-1.7,1.08-.51,3.79,1.59,2.11.06.41.33.47.66.44s.31-.07.31-.33Zm-1,1.91a.83.83,0,0,1-1,.76c-.62-.18-.45-1.17,0-1.41a1.86,1.86,0,0,1,.92-.3C250.66,164.5,250.67,164.81,250.66,165.12Z"/><path class="cls-16" d="M209.81,162.87a1.65,1.65,0,0,0-3.11,0c-.48,1.38-.43,4,1.56,3.91a1.52,1.52,0,0,0,1.57-1.11A5,5,0,0,0,209.81,162.87Zm-.94,2.62a.64.64,0,0,1-1.11.25,3.7,3.7,0,0,1,0-2.85.59.59,0,0,1,1.07,0A4.22,4.22,0,0,1,208.87,165.49Z"/><path class="cls-16" d="M114.8,166.32c-.22-1.11.36-3.84-.57-4.39-.67-.45-2.22-.26-2.48.76a.26.26,0,0,0,.15.33.46.46,0,0,0,.64-.15c.47-.66,1.47-.4,1.24.47,0,.18-.24.18-.37.24a5,5,0,0,0-1.29.54c-1.5,1.13-.4,3.68,1.67,2.08.22.4.24.41.6.41S114.85,166.57,114.8,166.32Zm-1-1.13a.81.81,0,0,1-1,.67c-.49-.22-.38-1,0-1.31a2,2,0,0,1,1-.38C113.77,164.53,113.78,164.86,113.77,165.19Z"/><path class="cls-16" d="M40.56,166.24c0-.53,0-1.07-.07-1.6h0c0-.6,0-1.21,0-1.81,0-1.45-2.27-1.59-2.88-.44-.36.51.29.84.62.52.33-.65,1.36-.7,1.33.17,0,.26,0,.31-.27.39a7,7,0,0,0-1.18.45c-1.85,1-.67,3.82,1.33,2.28a.11.11,0,0,1,.17,0c.08.35.34.36.62.35S40.56,166.48,40.56,166.24Zm-1.48-.49c-1.28.52-1.24-1.65.47-1.58C39.48,164.79,39.8,165.46,39.08,165.75Z"/><path class="cls-16" d="M217.83,166.37c-.09-.78,0-1.55-.05-2.28,0-.89.13-2.12-1-2.27a1.61,1.61,0,0,0-1.93.91.26.26,0,0,0,.16.37c.41.23.56-.11.8-.37a.63.63,0,0,1,1.07.56.27.27,0,0,1-.21.3,12.08,12.08,0,0,0-1.19.44,1.55,1.55,0,0,0-.91,1.88c.17,1.08,1.54,1,2.2.41.06,0,.15,0,.16,0,.09.36.36.35.63.34S217.86,166.59,217.83,166.37Zm-1-1.08a.81.81,0,0,1-1.11.59.85.85,0,0,1,0-1.18,1.48,1.48,0,0,1,1.12-.42C216.82,164.63,216.83,165,216.82,165.29Z"/><path class="cls-16" d="M90.2,166.31a20.32,20.32,0,0,1-.07-2.34c0-.87.1-2.1-1-2.23a1.65,1.65,0,0,0-1.95.91.3.3,0,0,0,.23.41c.7.19.51-.7,1.38-.54a.44.44,0,0,1,.39.32c0,.25.13.59-.19.68a9.31,9.31,0,0,0-1.18.46c-1.85.88-.8,3.73,1.15,2.38.19-.12.2-.12.38.12s.42.13.63.13S90.23,166.5,90.2,166.31Zm-1-1.18a.81.81,0,0,1-1,.75c-.59-.17-.47-1.09,0-1.36a1.76,1.76,0,0,1,1-.34C89.16,164.51,89.17,164.82,89.16,165.13Z"/><path class="cls-16" d="M171,166.16c-.13-1,0-2-.07-2.94s-.27-1.59-1.17-1.62a1.61,1.61,0,0,0-1.72.76c-.07.14-.16.28-.06.43s.3.17.48.16c.42-.09.31-.64,1.06-.57a.49.49,0,0,1,.46.41c0,.2.1.5-.16.58a11.05,11.05,0,0,0-1.25.47,1.58,1.58,0,0,0-.88,1.9c.14.95,1.35,1,2,.53.24-.15.24-.15.44.08S171.07,166.58,171,166.16Zm-1-1.06a.83.83,0,0,1-1,.63c-.5-.29-.34-1.1.11-1.36a2.32,2.32,0,0,1,1-.34C169.93,164.43,169.94,164.76,169.92,165.1Z"/><path class="cls-16" d="M101.56,166.33c-.07-1.05,0-2.1,0-3.15a1.27,1.27,0,0,0-.76-1.36,1.71,1.71,0,0,0-2.19.76c-.27.49.57.7.77.28a.73.73,0,0,1,.81-.34c.34,0,.43.36.43.65a.29.29,0,0,1-.22.35,7,7,0,0,0-1.25.48c-1.83,1.06-.64,3.86,1.45,2.21.16.18.15.42.45.41S101.61,166.65,101.56,166.33Zm-1-1.21a.83.83,0,0,1-1,.77c-.62-.18-.44-1.17,0-1.41a1.68,1.68,0,0,1,.92-.3C100.56,164.5,100.57,164.81,100.56,165.12Z"/><path class="cls-16" d="M152.07,164.28h1.48c.26,0,.36-.12.37-.37a3.64,3.64,0,0,0-.22-1.31,1.62,1.62,0,0,0-3.11.4c-.2,1.08-.3,2.65.71,3.36a1.7,1.7,0,0,0,2.43-.75c.15-.33.06-.49-.31-.56a.36.36,0,0,0-.4.17.85.85,0,0,1-1,.54c-.56-.11-.66-.93-.63-1.41A1.31,1.31,0,0,1,152.07,164.28Zm-.64-.94a2.05,2.05,0,0,1,.19-.64.68.68,0,0,1,1.19,0c.19.46.36.95-.29.86C152.27,163.52,151.32,163.76,151.43,163.34Z"/><path class="cls-19" d="M62.74,162.73a1.59,1.59,0,0,0-3-.13c-.48,1.22-.57,3.72,1.09,4a1.63,1.63,0,0,0,1.95-1.12.23.23,0,0,0,0-.25c-.5-.36-.68,0-.94.35-.85.77-1.44-.27-1.39-1.1a.15.15,0,0,1,.16-.17h2c.25,0,.33-.09.33-.33A3.3,3.3,0,0,0,62.74,162.73Zm-.78.87H60.45C60.38,162,62.1,162,62,163.6Z"/><path class="cls-16" d="M136.9,162.55a1.41,1.41,0,0,0-1.14-.83c-2-.3-2.28,2.27-1.87,3.71a1.65,1.65,0,0,0,3.18.11.22.22,0,0,0-.07-.24c-.43-.36-.71,0-.94.36-.88.78-1.51-.38-1.35-1.26.76,0,1.4,0,2.12,0,.21,0,.31-.09.32-.27A3.14,3.14,0,0,0,136.9,162.55Zm-1,1.16h-1.18c-.27-.84.74-1.77,1.32-.89C136.19,163.07,136.42,163.76,135.93,163.71Z"/><path class="cls-19" d="M243.83,162.62a1.42,1.42,0,0,0-.9-.84c-2.29-.66-2.69,2.46-2,4a1.65,1.65,0,0,0,3,0c.18-.38,0-.61-.38-.61s-.35.31-.51.48c-.85.84-1.55-.33-1.4-1.16a1,1,0,0,1,.55-.07h1.61C244.38,164.43,244,163,243.83,162.62Zm-1,1.09h-.47c-.23,0-.82.14-.73-.27a2.43,2.43,0,0,1,.2-.63.67.67,0,0,1,1.19.05C243.09,163.17,243.36,163.76,242.79,163.71Z"/><path class="cls-16" d="M302.11,162.45a1.61,1.61,0,0,0-2.89.45c-.47,1.38-.26,4.08,1.67,3.83.86.11,2.1-1.42,1.06-1.52-.29-.06-.4.22-.54.41a.73.73,0,0,1-.76.3c-.64-.11-.69-.92-.66-1.44a1.37,1.37,0,0,1,.6-.06h1.55c.14,0,.28,0,.29-.21A2.92,2.92,0,0,0,302.11,162.45Zm-.63,1.27H300C299.8,162.15,301.7,162.08,301.48,163.72Z"/><path class="cls-16" d="M25.72,164.31h1.34c.92,0,.84.1.82-.89a1.7,1.7,0,0,0-1.94-1.77c-1.68.35-1.62,2.54-1.29,3.85a1.43,1.43,0,0,0,1.47,1.14,1.53,1.53,0,0,0,1.66-1.09.27.27,0,0,0-.15-.38.42.42,0,0,0-.63.15c-.75,1.23-1.8.12-1.54-1C25.55,164.34,25.64,164.31,25.72,164.31Zm-.07-1.57c.56-.8,1.4,0,1.3.73,0,.11-.07.15-.17.15a8.29,8.29,0,0,1-1.32,0A1.18,1.18,0,0,1,25.65,162.74Z"/><path class="cls-16" d="M192.31,162.66a1.61,1.61,0,0,0-3-.07,4.63,4.63,0,0,0,0,3,1.66,1.66,0,0,0,2.89.26c.13-.23.38-.67,0-.78s-.54.07-.69.35a.75.75,0,0,1-.82.32c-.59-.1-.67-1-.63-1.48h2.11C192.78,164.37,192.42,163,192.31,162.66Zm-.79.91a12.38,12.38,0,0,1-1.51,0C190,161.9,191.72,162,191.52,163.57Z"/></g></svg>