<svg id="Capa_2" data-name="Capa 2" xmlns="http://www.w3.org/2000/svg" viewBox="0 0 328 261"><defs><style>.cls-1{fill:#4b4b4b;}.cls-2{fill:#fff;}</style></defs><polygon class="cls-1" points="50.66 55 280 55 280 207.9 50.66 207.9 50.66 55 50.66 55"/><polygon class="cls-2" points="160.44 88.31 165.28 84.78 170.12 88.31 168.28 82.6 173.19 79.07 167.13 79.07 165.28 73.29 163.43 79.08 157.37 79.07 162.28 82.6 160.44 88.31 160.44 88.31"/><polygon class="cls-2" points="135.4 95.04 140.24 91.51 145.07 95.04 143.24 89.33 148.15 85.8 142.09 85.8 140.24 80.01 138.38 85.81 132.32 85.8 137.24 89.33 135.4 95.04 135.4 95.04"/><polygon class="cls-2" points="121.91 98.38 120.06 104.17 114 104.16 118.92 107.7 117.07 113.41 121.91 109.88 126.75 113.41 124.91 107.7 129.82 104.16 123.77 104.16 121.91 98.38 121.91 98.38"/><polygon class="cls-2" points="115.19 134.89 120.03 138.42 118.19 132.71 123.1 129.18 117.05 129.18 115.19 123.39 113.34 129.19 107.28 129.18 112.19 132.71 110.35 138.42 115.19 134.89 115.19 134.89"/><polygon class="cls-2" points="123.77 154.26 121.91 148.48 120.06 154.27 114 154.26 118.92 157.8 117.07 163.51 121.91 159.97 126.75 163.51 124.91 157.8 129.82 154.26 123.77 154.26 123.77 154.26"/><polygon class="cls-2" points="142.13 172.62 140.27 166.84 138.42 172.63 132.36 172.62 137.28 176.16 135.44 181.87 140.28 178.34 145.11 181.87 143.27 176.16 148.19 172.62 142.13 172.62 142.13 172.62"/><polygon class="cls-2" points="167.14 179.28 165.28 173.49 163.43 179.28 157.38 179.28 162.29 182.81 160.45 188.52 165.29 184.99 170.12 188.52 168.28 182.81 173.2 179.28 167.14 179.28 167.14 179.28"/><polygon class="cls-2" points="192.15 172.62 190.3 166.84 188.44 172.63 182.39 172.62 187.3 176.16 185.46 181.87 190.3 178.34 195.14 181.87 193.29 176.16 198.21 172.62 192.15 172.62 192.15 172.62"/><polygon class="cls-2" points="210.52 154.26 208.66 148.48 206.8 154.27 200.75 154.26 205.66 157.8 203.82 163.51 208.66 159.97 213.5 163.51 211.65 157.8 216.57 154.26 210.52 154.26 210.52 154.26"/><polygon class="cls-2" points="223.22 129.11 217.16 129.11 215.31 123.32 213.46 129.11 207.4 129.11 212.31 132.64 210.47 138.35 215.31 134.81 220.15 138.35 218.31 132.64 223.22 129.11 223.22 129.11"/><polygon class="cls-2" points="203.82 113.33 208.66 109.8 213.5 113.33 211.65 107.62 216.57 104.09 210.52 104.09 208.66 98.31 206.8 104.1 200.75 104.09 205.66 107.62 203.82 113.33 203.82 113.33"/><polygon class="cls-2" points="190.37 80.02 188.52 85.81 182.46 85.8 187.37 89.34 185.53 95.05 190.38 91.51 195.21 95.05 193.37 89.34 198.28 85.8 192.22 85.8 190.37 80.02 190.37 80.02"/></svg>